<?xml version="1.0" encoding="utf-8"?>
<!-- Generator: Adobe Illustrator 16.0.0, SVG Export Plug-In . SVG Version: 6.00 Build 0)  -->
<!DOCTYPE svg PUBLIC "-//W3C//DTD SVG 1.1//EN" "http://www.w3.org/Graphics/SVG/1.1/DTD/svg11.dtd">
<svg version="1.1" id="Layer_1" xmlns="http://www.w3.org/2000/svg" xmlns:xlink="http://www.w3.org/1999/xlink" x="0px" y="0px"
	 width="960px" height="540px" viewBox="0 0 960 540" enable-background="new 0 0 960 540" xml:space="preserve">
<g display="none">
	<path display="inline" fill-rule="evenodd" clip-rule="evenodd" fill="#BE7753" d="M509.953,160.602
		c-4.428-7.046-8.859-14.091-13.281-21.142c-1.189-1.896-2.818-2.689-5.107-3.021c-8.279-1.201-8.26-1.314-4.393-8.916
		c1.229-2.417,2.439-4.842,3.659-7.263c5.46,0,10.921,0,16.382,0c1.219,1.686,3.061,1.009,4.633,1.127
		c23.529,1.785,47.055,3.653,70.604,5.158c5.74,0.367,7.422,2.678,8.275,8.291c4.8,31.559,0.226,62.619-4.027,93.736
		c-0.447,3.278-1.882,5.958-4.153,8.244c-8.859,8.916-17.734,17.817-26.621,26.706c-1.011,1.011-1.919,2.585-3.563,2.242
		c-11.689-2.434-23.801-1.231-35.427-4.148c0.304-1.174,1.047-1.952,2.146-2.415c6.698-0.539,13.319,0.4,19.938,1.204
		c9.318,1.131,10.784,0.407,11.326-9.034c0.756-13.176,2.571-26.216,4.072-39.299c0.258-2.245,0.134-4.674,2.247-6.278
		c1.26-0.344,2.035,0.366,2.731,1.248c1.239,7.571-0.74,14.968-1.307,22.44c-0.774,10.218-2.071,20.385-2.932,30.262
		c6.294-6.825,13.278-13.596,20.215-20.407c4.512-4.43,7.466-9.481,8.34-15.799c2.271-16.4,3.933-32.854,4.812-49.387
		c-0.387-1.681-0.592-3.375-0.428-5.098c1.532-10.203-0.244-20.387-0.794-30.216c-2.466,5.083-7.405,6.235-13.172,5.895
		c-14.595-0.86-29.156-2.157-43.736-3.185c-9.247-0.651-18.475-2.523-28.328-1.667c2.877,6.786,7.789,11.654,9.909,18.031
		c0.057,0.709-0.051,1.391-0.312,2.05C511.287,160.693,510.717,160.906,509.953,160.602z"/>
	<path display="inline" fill-rule="evenodd" clip-rule="evenodd" fill="#BC704E" d="M518.543,260.196
		c-0.536,0.473-1.072,0.945-1.608,1.417c-13.487-1.869-26.969-3.771-40.462-5.588c-4.233-0.57-5.78-2.382-5.625-7.038
		c0.627-18.877,2.022-37.701,3.167-56.543c0.199-3.272,1.678-5.23,4.03-7.281c10.138-8.847,21.321-16.313,31.909-24.561
		c0.345,0.006,0.688,0.007,1.032,0.004c3.2,4.068,1.738,8.848,1.906,13.33c0.243,6.494-0.239,12.957-2.46,19.161
		c-2.576,2.605-5.789,2.034-8.877,1.592c-5.814-0.832-11.728-0.773-17.496-1.951c-4.471-0.913-6.216,0.519-6.66,5.39
		c-0.837,9.193-0.789,18.416-1.592,27.599c-1.138,3.843-0.662,7.798-0.778,11.709c0.123,15.273-2.107,14.23,13.975,16.213
		c7.451,0.919,14.876,2.155,22.283,3.434C513.938,257.54,516.736,257.735,518.543,260.196z"/>
	<path display="inline" fill-rule="evenodd" clip-rule="evenodd" fill="#D6A376" d="M518.543,260.196
		c-13.488-2.094-26.943-4.466-40.485-6.122c-4.329-0.529-5.161-2.193-4.901-5.891c0.248-3.527,0.127-7.08,0.169-10.623
		c2.559-0.651,3.642,1.617,5.276,2.728c6.584,4.476,13.306,3.651,18.341-2.538c1.484-1.824,2.756-3.695,5.32-3.958
		c4.658-0.326,9.125,0.97,13.703,1.373c-4.164-1.254-8.494-1.325-12.813-1.489c-3.406,0.919-5.523-0.597-6.945-3.583
		c-1.512-3.174-3.559-6.062-4.661-9.467c-0.896-2.762-2.686-4.225-5.655-2.295c-0.671,0.526-1.34,1.051-1.995,1.596
		c-3.126,2.411-4.316,7.147-9.079,7.575c-0.142,0.013-0.331-0.212-0.458-0.361c-0.242-0.28-0.211-0.644,0.052-1.055
		c-0.675-10.917,1.201-21.731,1.307-32.613c0.029-2.997,0.834-3.821,4.161-3.294c9.881,1.565,19.821,2.866,29.853,3.14
		c6.515-2.006,12.864,0.571,19.297,0.812c8.362,0.314,16.698,1.476,24.84,3.591c4.468,1.162,6.783,3.462,3.691,8.133
		c-2.716,8.14-2.271,16.741-3.575,25.093c-1.406,9.004-2.022,18.154-2.557,27.265c-0.214,3.656-1.562,4.771-4.956,4.45
		C537.168,261.787,527.854,261.013,518.543,260.196z"/>
	<path display="inline" fill-rule="evenodd" clip-rule="evenodd" fill="#B97C46" d="M557.561,205.855
		c0.433-3.669-0.041-5.685-4.767-6.667c-12.256-2.547-24.707-2.937-37.035-4.541c-2.073-0.27-4.159-0.218-6.026-1.328
		c1.393-10.868,1.361-21.789,1.254-32.714c0.008-0.421,0.015-0.843,0.021-1.265c2.408-1.211,4.945-0.75,7.405-0.405
		c20.933,2.931,42.111,3.719,62.97,7.293c2.859,0.491,5.955,0.298,7.729,3.287c0.421,1.223,0.842,2.446,1.263,3.669
		c-4.188,7.55-11.263,12.279-17.558,17.718c-5.511,4.761-11.464,9.029-14.018,16.29
		C558.387,206.748,557.974,206.302,557.561,205.855z"/>
	<path display="inline" fill-rule="evenodd" clip-rule="evenodd" fill="#D6A376" d="M589.111,169.516
		c-12.29-1.719-24.558-3.63-36.878-5.104c-13.748-1.646-27.669-1.858-41.226-5.071c-2.98-7.784-9.07-13.838-12.679-22.226
		c23.344,1.965,45.973,4.124,68.645,5.638c7.85,0.524,17.244,3.453,21.256-8.344c0.946,11.333,2.896,21.772,2.127,32.376
		C590.288,167.721,589.543,168.606,589.111,169.516z"/>
	<path display="inline" fill-rule="evenodd" clip-rule="evenodd" fill="#D6A377" d="M558.799,207.193
		c0.333-4.685,2.018-8.431,5.863-11.6c8.771-7.226,17.165-14.91,25.712-22.408c-0.827,17.928-2.739,35.749-5.465,53.479
		c-0.466,3.027-1.128,6.249-3.534,8.548c-9.055,8.651-18.149,17.26-27.64,26.273C554.426,243.319,556.981,225.284,558.799,207.193z"
		/>
	<path display="inline" fill-rule="evenodd" clip-rule="evenodd" fill="#D6A376" d="M587.618,129.642
		c-6.179,12.235-6.664,12.912-23.437,10.482c-8.33-1.207-16.683-1.131-24.986-1.879c-16.002-1.439-32.053-2.456-48.057-4.055
		c-4.038-0.403-4.432-1.232-2.643-4.974c2.424-5.07,5.535-6.902,11.227-6.559c22.938,1.379,45.865,2.783,68.751,4.926
		C574.691,128.166,580.918,128.45,587.618,129.642z"/>
	<path display="inline" fill-rule="evenodd" clip-rule="evenodd" fill="#D49267" d="M502.223,234.901
		c-1.357,0.096-2.15,0.851-2.911,1.981c-6.851,10.173-16.181,10.805-24.485,1.743c-0.406-0.443-0.998-0.715-1.502-1.066
		c0.286-3.83-1.254-7.835,1.089-11.472c5.223,0.217,5.093-6.118,9.077-7.418c1.847,1.376,1.16,5.257,4.773,4.853
		c0.642-0.073,1.176-0.602,1.247-1.242c0.407-3.62-3.478-2.922-4.855-4.764c4.292-4.354,7.2-1.883,8.366,2.444
		c1.113,4.131,4.008,7.168,5.318,11.062c0.686,2.036,2.096,2.336,3.903,1.434C502.922,233.277,502.918,234.093,502.223,234.901z"/>
	<path display="inline" fill-rule="evenodd" clip-rule="evenodd" fill="#D49469" d="M541.354,224.829
		c2.659,4.168,5.397,8.29,7.95,12.522c1.674,2.775,0.366,5.343-1.275,7.578c-4.352,5.924-15.063,7.338-20.9,2.878
		c-5.832-4.456-6.339-10.172-1.375-15.656c2.218-2.45,4.683-4.533,6.002-7.883c1.082-2.749,3.654-4.847,6.917-1.836
		c-0.354,0.496-0.733,0.972-1.143,1.425c-1.229,1.358-3.019,3.009-0.872,4.531c1.901,1.349,2.644-0.929,3.466-2.246
		C540.449,225.622,540.829,225.16,541.354,224.829z"/>
	<path display="inline" fill-rule="evenodd" clip-rule="evenodd" fill="#9E4E35" d="M484.655,217.517
		c1.649-0.229,3.354-0.65,4.839,0.441c1.367,1.004,2.662,2.242,2.323,4.125c-0.361,2.006-1.714,3.354-3.736,3.718
		c-1.893,0.342-3.147-0.874-4.142-2.273c-1.064-1.5-0.567-3.213-0.45-4.859C483.879,218.286,484.267,217.902,484.655,217.517z"/>
	<path display="inline" fill-rule="evenodd" clip-rule="evenodd" fill="#A95D3D" d="M502.223,234.901
		c0.006-0.814,0.013-1.63,0.02-2.446c5.022-0.161,10.037-0.292,14.948,1.109c1.334,0.381,3.372,0.172,2.925,2.267
		c-0.385,1.799-2.277,1.582-3.712,1.366C511.668,236.485,506.947,235.674,502.223,234.901z"/>
	<path display="inline" fill-rule="evenodd" clip-rule="evenodd" fill="#9C4C33" d="M541.354,224.829
		c-0.133,2.384,0.54,5.175-2.694,6.127c-1.405,0.414-2.854,0.3-3.995-0.876c-1.304-1.344-1.36-2.999-0.867-4.6
		c0.716-2.322,2.809-2.729,4.875-3.048C539.566,223.232,540.46,224.03,541.354,224.829z"/>
</g>
<g display="none">
	<path display="inline" fill-rule="evenodd" clip-rule="evenodd" fill="#FDFDFC" d="M792.348,343.905
		c0,9.241-0.157,18.486,0.087,27.721c0.083,3.164-0.716,3.884-3.868,3.866c-25.621-0.148-51.244-0.083-76.867-0.083
		c4.949-5.465,8.905-11.685,17.878-11.974c13.734-0.444,27.513-0.599,41.204-2.244c8.493-1.02,15.323-3.843,17.784-13.049
		C789.044,346.349,789.45,343.836,792.348,343.905z"/>
	<path display="inline" fill-rule="evenodd" clip-rule="evenodd" fill="#BB7656" d="M792.348,343.905
		c-0.174,0.117-0.479,0.212-0.504,0.354c-2.765,15.832-14.541,18.936-27.889,19.598c-12.766,0.635-25.543,1.045-38.317,1.511
		c-1.229,0.046-2.889-0.503-3.354,0.869c-1.761,5.197-6.818,6.404-10.585,9.172c-4.62,0-9.241,0-13.861,0
		c-3.231-2.214-7.323-2.676-10.358-5.408c-6.746-6.075-5.631-14.641,2.794-17.995c6.964-2.774,14.224-2.854,21.434-0.561
		c0.369,0.597,0.27,1.125-0.229,1.592c-4.101,2.357-8.593,1.037-12.905,1.277c-7.203,0.399-10.869,2.425-11.329,6.661
		c-0.422,3.889,4.059,8.202,10.053,9.68c9.694,2.39,17.483,0.152,21.427-6.026c1.53-2.398,2.52-4.174-1.229-5.648
		c-2.597-1.021-5.484-2.353-6.067-5.774c1.277-1.237,2.739-2.241,4.149-3.314c3.854,2.783,6.836,7.163,12.418,6.808
		c0.86,0.336,1.523,0.885,1.885,1.752c0.271,1.617-0.334,2.795-1.761,3.637c1.197-0.425,2.259-1.292,3.616-1.287
		c0.646-0.031,1.272,0.027,1.902,0.151c13.008,0.529,25.938-0.579,38.744-2.482c10.044-1.492,13.402-5.549,15.202-15.626
		c0.481-2.697,0.514-5.413,0.479-8.135c-0.176-13.837-6.732-20.764-20.584-21.73c-9.586-0.669-19.148-1.51-28.605-3.325
		c-1.373-0.709-2.291-1.671-1.854-3.373c9.709,0.852,19.402,2.022,29.13,2.476c13.537,0.632,23.003,6.105,26.2,20.028
		C792.348,333.824,792.348,338.865,792.348,343.905z"/>
	<path display="inline" fill-rule="evenodd" clip-rule="evenodd" fill="#C69B7E" d="M711.676,352.82
		c0.011-0.458,0.021-0.917,0.031-1.375c1.988-1.319,0.575-2.907,0.403-4.442c-1.315-11.718-0.783-23.215,4.825-33.92
		c1.605-3.065,3.229-6.371,7.212-7.157c0.321,0.038,0.643,0.076,0.963,0.113c3.63,0.704,8.582,0.123,6.347,6.529
		c-7.853-0.785-9.019-0.325-11.438,7.157c-2.573,7.956-5.322,15.983-3.231,24.632c0.492,2.04,0.396,4.209-1.294,5.896
		c-0.049,2.719-2.147,2.318-3.846,2.526L711.676,352.82z"/>
	<path display="inline" fill-rule="evenodd" clip-rule="evenodd" fill="#CDA48A" d="M737.018,306.28
		c0.415,0.702,0.831,1.404,1.247,2.106c3.635,14.436,4.236,28.941,0.581,43.439c-0.978,3.88-1.416,8.471-6.526,9.735l-0.459-0.028
		c-0.757-0.854-0.993-1.911-0.641-2.914c5.713-16.242,5.256-32.667,1.557-49.202c-0.085-0.38,0.099-0.805,0.239-1.207
		c0.536-1.011,1.321-1.673,2.496-1.791C736.014,306.372,736.516,306.327,737.018,306.28z"/>
	<path display="inline" fill-rule="evenodd" clip-rule="evenodd" fill="#C69B7E" d="M735.512,306.419
		c-0.169,0.369-0.425,0.663-0.769,0.883c-3.769,1.961-6.942-1.174-10.477-1.22c0,0-0.117-0.154-0.118-0.155
		C728.029,303.932,731.83,303.806,735.512,306.419z"/>
	<path display="inline" fill-rule="evenodd" clip-rule="evenodd" fill="#F8F2E2" d="M732.319,361.562
		c6.468-6.833,6.063-15.785,6.932-24.13c0.91-8.738,0.611-17.612-2.503-26.057c-0.678-1.838-0.484-2.746,1.517-2.988
		c11.428,1.193,22.908,2.023,34.268,3.685c11.079,1.621,15.984,7.126,17.194,18.318c0.423,3.92,0.413,7.994-0.146,11.891
		c-1.753,12.235-5.742,16.389-17.87,18.248c-12.212,1.872-24.578,1.957-36.908,2.339
		C733.734,362.898,732.706,362.837,732.319,361.562z"/>
	<path display="inline" fill-rule="evenodd" clip-rule="evenodd" fill="#A8A786" d="M715.494,350.253
		c-2.006-11.558-0.748-22.713,3.754-33.583c3.068-7.407,5.66-8.437,12.77-4.406c0.256,0.276,0.512,0.555,0.771,0.829
		c3.949,13.112,2.187,26.256,0.072,39.37c-0.414,2.563-2.143,4.466-4.794,5.26C721.943,358.485,717.827,355.871,715.494,350.253z"/>
	<path display="inline" fill-rule="evenodd" clip-rule="evenodd" fill="#85CEBD" d="M711.648,352.779
		c3.274,3.594,7.253,6.014,12.017,6.949c0.102,2.081-1.822,2.307-2.574,3.486c-6.416,10.075-18.133,13.015-29.02,7.237
		c-3.847-2.042-7.152-4.838-6.592-9.716c0.605-5.274,4.76-7.362,9.297-7.779c5.59-0.515,11.262-0.133,16.899-0.138
		C711.676,352.82,711.648,352.779,711.648,352.779z"/>
	<path display="inline" fill-rule="evenodd" clip-rule="evenodd" fill="#DBDDC2" d="M724.267,306.082
		c3.489,0.406,6.978,0.813,10.472,1.22c-0.318,0.749-1.09,1.644-0.9,2.225c5.73,17.592,4.34,34.888-1.978,52.007
		c-1.472,0.774-2.917,1.61-4.43,2.296c-0.52,0.235-1.208,0.1-2.819,0.188c1.981-1.952,4.214-2.738,4.884-4.82
		c5.642-15.373,6.729-30.98,2.408-46.865c0,0,0.111-0.067,0.113-0.067C731.704,307.355,726.789,308.22,724.267,306.082z"/>
	<path display="inline" fill-rule="evenodd" clip-rule="evenodd" fill="#B89170" d="M731.903,312.332
		c6.064,15.975,4.689,31.566-2.409,46.864c-0.476-0.49-0.951-0.981-1.428-1.474c4.962-5.606,4.466-12.745,4.902-19.392
		C733.536,329.682,733.49,320.946,731.903,312.332z"/>
	<path display="inline" fill-rule="evenodd" clip-rule="evenodd" fill="#F6DAC5" d="M749.562,347.815
		c2.857-3.335,7.411-5.058,7.572-10.805c0.195-6.927-3.484-10.563-8.699-13.612c1.453-1.691,1.559-3.89,2.213-5.881
		c2.566-3.7,5.302-7.616,10.374-3.936c4.232,3.072,4.044,8.382,0.072,13.068c-4.444,5.244-3.989,12.017,1.146,17.032
		c3.581,3.499,3.331,12.077-0.965,14.519c-4.637,2.637-7.184-0.942-9.299-4.521C751.334,351.658,751.058,349.485,749.562,347.815z"
		/>
	<path display="inline" fill-rule="evenodd" clip-rule="evenodd" fill="#B57252" d="M750.647,317.518
		c2.438,3.155,2.552,5.438-2.214,5.881C746.04,320.26,746.741,318.286,750.647,317.518z"/>
	<path display="inline" fill-rule="evenodd" clip-rule="evenodd" fill="#B87A5B" d="M749.562,347.815
		c4.189,0.563,4.504,2.72,2.415,5.866C747.315,353.313,746.837,351.224,749.562,347.815z"/>
	<path display="inline" fill-rule="evenodd" clip-rule="evenodd" fill="#ECF4E3" d="M693.232,355.492
		c0.459,0.579,0.936,1.181,1.412,1.782c-2.303,1.54-2.615,5.074-5.512,5.821c-0.972,0.25-1.538-1.367-1.256-2.426
		C688.575,358.055,690.394,356.455,693.232,355.492z"/>
</g>
<g>
	<path fill-rule="evenodd" clip-rule="evenodd" fill="#BC6F4F" d="M149.217,307.993c-4.134-0.166-7.47-0.248-10.741-1.229
		c-9.726-2.915-11.448-5.398-12.231-15.502c-1.345-17.341-2.334-34.76-4.879-51.939c-1.459-9.851,5.599-14.525,9.374-21.262
		c0.814-1.455,3.303-2.088,4.565-1.165c5.563,4.07,11.749,1.548,17.615,2.049c4.234,0.36,8.288,1.221,12.179,2.855
		c4.503,1.891,6.825,5.32,7.045,10.221c0.905,20.091,1.758,40.185,2.817,60.269c0.25,4.746-1.334,8.055-5.443,10.387
		C162.961,306.398,155.884,307.888,149.217,307.993z"/>
	<path fill-rule="evenodd" clip-rule="evenodd" fill="#F59799" d="M148.281,306.045c-3.188,0.364-6.225-0.246-9.25-1.228
		c-9.024-2.933-13.04-9.599-11.177-18.733c0.762-3.739,7.417-7.068,12.568-6.008c4.895,1.007,9.819,2.056,14.548,3.635
		c4.803,1.604,9.211,1.13,13.134-1.697c3.451-2.485,4.129-0.835,4.616,2.222c2.114,13.285-4.215,20.428-19.418,21.783
		C151.639,306.167,149.952,306.039,148.281,306.045z"/>
	<path fill-rule="evenodd" clip-rule="evenodd" fill="#F39596" d="M126.319,260.746c-2.22-6.203-0.458-12.832-2.992-19.763
		c15.228,8.033,29.339,7.741,43.286-0.268c1.86-1.068,3.628-1.793,3.689,1.519c0.111,6.026,1.116,12.253-3.777,17.181
		c-1.951,0.708-2.586-0.624-3.174-2.04c-0.304-1.864,0.715-4.014-1.223-5.496c-2.833-1.077-4.303,1.332-4.681,2.901
		c-1.6,6.644-6.442,6.578-11.582,6.314c-1.034-0.053-2.072-0.016-3.107-0.138c-3.771-0.332-5.396-3.337-7.38-5.889
		c-3.094-2.15-3.516,0.485-4.318,2.421C130.004,259.339,129.078,261.387,126.319,260.746z"/>
	<path fill-rule="evenodd" clip-rule="evenodd" fill="#F7E0CB" d="M170.451,264.498c3.284,14.83-2.755,20.514-17.674,16.492
		c-8.075-2.176-16.077-5.059-24.183-0.063c-1.46-8.454,4.49-14.016,13.998-12.255c7.68,1.423,14.522,0.345,21.274-3.046
		C166.109,265.529,168.026,263.531,170.451,264.498z"/>
	<path fill-rule="evenodd" clip-rule="evenodd" fill="#C0C1BA" d="M129.998,231.761c3.616-0.59,5.563,4.178,9.596,2.816
		c2.202-0.745,5.53,0.743,6.425-2.409c0.795-2.798-2.659-3.214-5.007-5.56c7.867-1.868,14.732-1.757,21.001,1.808
		c3.675,2.089,2.691,5.312-0.483,7.52c-3.338,2.325-7.387,2.701-11.234,3.585c-6.197,3.064-12.184,1.696-17.929-1.164
		C129.794,237.076,128.003,234.955,129.998,231.761z"/>
	<path fill-rule="evenodd" clip-rule="evenodd" fill="#F38A88" d="M136.438,253.18c1.799,2.396,2.101,6.263,6.243,6.361
		c0.361,0.38,0.706,0.775,1.044,1.179c3.237,1.831,6.535,1.11,9.836,0.263c3.361-1.034,5.841-0.385,6.636,3.475
		c-4.346,3.287-9.606,3.617-14.305,2.414c-7.316-1.871-13.337-0.47-19.574,5.441c0-4.687,0-8.126,0-11.566
		c1.72-0.847,2.977-2.146,3.793-3.875C132.649,256.377,134.768,255.163,136.438,253.18z"/>
	<path fill-rule="evenodd" clip-rule="evenodd" fill="#E67B78" d="M160.196,264.457c-1.846-1.241-3.105-3.971-6.064-2.393
		c-3.824-0.621-7.958,1.251-11.527-1.429c0.027-0.365,0.052-0.73,0.074-1.096c6.816,1.439,11.9-0.617,14.663-7.3
		c1.524-3.687,3.887-3.672,6.753-1.59c-3.032,1.987-2.883,4.046-0.137,6.163c0.515,1.205,1.298,2.144,2.566,2.604
		C164.416,261.097,162.306,262.776,160.196,264.457z"/>
	<path fill-rule="evenodd" clip-rule="evenodd" fill="#D6CFBB" d="M156.674,222.762c1.031,0.099,2.116,0.022,3.083,0.324
		c4.327,1.348,9.273,2.226,9.522,8.147c0.253,6.007-3.977,8.107-8.904,9.398c-2.968,0.776-5.722,2.381-8.912,2.296
		c-0.41-0.3-0.622-0.708-0.665-1.21c0.096-0.514,0.399-0.828,0.912-0.939c3.417,0.35,6.546-0.871,9.575-2.089
		c2.931-1.179,5.647-3.008,5.312-6.789c-0.312-3.511-2.679-5.447-5.842-6.467c-1.758-0.567-3.579-0.939-5.372-1.398
		C155.086,222.872,155.38,222.309,156.674,222.762z"/>
	<path fill-rule="evenodd" clip-rule="evenodd" fill="#D9D3BE" d="M151.441,241.771c0.01,0.385,0.017,0.771,0.022,1.156
		c-7.575,0.687-15.162,1.163-22.111-2.788c-4.918-2.794-6.086-8.456-2.513-11.43c0.683-0.568,1.758-1.544,2.417,0.049
		c0.182,0.44-0.307,1.158-0.487,1.749c-0.859,5.346,2.667,7.131,6.767,8.879C140.691,241.583,146.4,239.327,151.441,241.771z"/>
	<path fill-rule="evenodd" clip-rule="evenodd" fill="#BD7D61" d="M151.441,241.771c-5.633,0.262-11.391,0.647-16.661-1.553
		c-3.96-1.652-9.39-3.177-6.012-9.71c0.41,0.418,0.819,0.837,1.229,1.254c0.129,6.552,5.634,6.413,9.769,7.348
		c3.368,0.762,7.008,0.32,10.527,0.411c0.471,0.419,0.943,0.836,1.415,1.256C151.583,241.099,151.494,241.43,151.441,241.771z"/>
	<path fill-rule="evenodd" clip-rule="evenodd" fill="#D3BAA1" d="M138.822,223.109c-0.099,2.382,0.808,5.15-2.745,6.053
		c-2.596,0.66-3.915-1.005-5.149-2.646c-1.552-2.063-1.606-4.46,0.24-6.258c2.101-2.048,4.516-1.731,6.668,0.26
		c0.396,2.751-4.076,0.859-3.57,3.757C136.28,225.807,136.883,221.795,138.822,223.109z"/>
	<path fill-rule="evenodd" clip-rule="evenodd" fill="#BC7552" d="M138.822,223.109c-1.615,1.239-1.355,4.756-4.544,3.983
		c-1.495-0.363-2.364-1.954-2.469-3.317c-0.41-5.314,4.32-1.561,6.026-3.257C138.754,221.159,138.865,222.105,138.822,223.109z"/>
	<path fill-rule="evenodd" clip-rule="evenodd" fill="#CFB199" d="M156.674,222.762c-0.431,0.425-0.861,0.85-1.291,1.272
		c-4.721,0-9.443,0-14.166,0C146.188,220.997,151.375,221.114,156.674,222.762z"/>
	<path fill-rule="evenodd" clip-rule="evenodd" fill="#EAC7AE" d="M170.451,264.498c-2.116,0.832-4.005,2.986-6.584,1.129
		c2.024-2.155,4.049-4.311,6.145-6.543C171.073,260.961,170.39,262.757,170.451,264.498z"/>
	<path fill-rule="evenodd" clip-rule="evenodd" fill="#B84638" d="M163.959,256.813c-2.491,0.167-4.785-0.285-4.837-3.312
		c-0.062-3.576,2.868-2.655,4.974-2.851C165.745,252.742,165.632,254.794,163.959,256.813z"/>
	<path fill-rule="evenodd" clip-rule="evenodd" fill="#B84839" d="M136.438,253.18c0.041,4.917-2.01,6.247-6.327,3.692
		C130.131,252.06,132.213,250.784,136.438,253.18z"/>
	<path fill-rule="evenodd" clip-rule="evenodd" fill="#BD5444" d="M142.605,260.636c3.796,0.84,7.984-1.477,11.526,1.429
		c-3.412,2.166-7.198,0.882-10.805,1.041C141.692,263.179,141.412,261.896,142.605,260.636z"/>
</g>
<g display="none">
	<path display="inline" fill-rule="evenodd" clip-rule="evenodd" fill="#B77858" d="M147.531,468.951
		c2.672-28.852,4.962-56.42,13.072-83.103c1.263-4.156,1.919-8.659,1.902-12.998c-0.019-4.686,2.156-5.687,6.124-5.689
		c5.55-0.004,10.778,1.434,16.005,3.012c12.235,3.692,24.446,7.473,36.721,11.029c6.772,1.962,12.526,5.736,18.415,9.372
		c2.14,1.322,1.749,2.87,1.566,4.827c-0.648,6.938-2.081,13.748-4.572,20.182c-5.626,14.528-8.832,29.713-12.461,44.758
		c-1.927,7.984-7.044,14.802-7.66,23.184c-0.149,2.043-1.77,2.284-3.793,1.813c-19.577-4.559-39.976-3.928-59.44-9.565
		C148.459,474.337,146.609,472.488,147.531,468.951z"/>
	<path display="inline" fill-rule="evenodd" clip-rule="evenodd" fill="#85CEBD" d="M150.459,458.211
		c1.862-25.293,5.753-50.234,12.686-74.653c0.286-1.006,0.619-2.011,0.769-3.039c1.345-9.258,1.33-9.245,10.224-6.67
		c20.684,5.986,41.533,11.426,61.563,19.529c3.307,1.338,3.914,2.556,3.282,5.854c-3.192,16.687-10.496,32.173-13.869,48.838
		c-1.56,7.707-3.193,15.55-6.602,22.858c-1.405,3.012-2.481,4.464-5.994,3.068c-2.485-0.988-5.334-1.768-7.952-1.593
		c-17.507,1.164-34.083-2.465-50.26-8.84C150.261,461.971,150.103,462.371,150.459,458.211z"/>
	<path display="inline" fill-rule="evenodd" clip-rule="evenodd" fill="#84D0BF" d="M214.302,479.893
		c0.206,2.05,0.181,4.247-2.761,3.164c-10.8-3.972-22.25-2.684-33.345-4.252c-8.699-1.229-16.803-4.945-25.625-5.459
		c-3.18-0.186-2.616-2.59-2.33-4.688c3.897-1.467,7.388,0.505,10.841,1.593c11.384,3.587,22.849,5.761,34.911,5.521
		C202.173,475.649,209.003,475.044,214.302,479.893z"/>
	<path display="inline" fill-rule="evenodd" clip-rule="evenodd" fill="#77B09D" d="M235.991,390.928
		c-22.095-9.288-45.317-15.035-68.181-21.906C191.239,374.116,214.498,379.748,235.991,390.928z"/>
	<path display="inline" fill-rule="evenodd" clip-rule="evenodd" fill="#A49980" d="M214.302,479.893
		c-5.456-1.268-10.941-2.819-16.557-2.482c-16.589,0.996-32.045-3.809-47.503-8.753c-0.01-0.515-0.021-1.031-0.032-1.548
		c3.198-1.358,5.96,0.407,8.813,1.297c5.84,1.821,11.698,3.571,17.62,5.107l-0.1-0.069c9.133,2.27,18.557,0.526,27.736,2.011
		c3.551,0.575,7.573-0.074,10.222,3.341C214.451,479.165,214.385,479.531,214.302,479.893z"/>
	<path display="inline" fill-rule="evenodd" clip-rule="evenodd" fill="#8BC2AF" d="M214.501,478.796
		c-6.273-2.981-12.997-2.758-19.688-2.773c-6.208-0.015-12.43,0.058-18.27-2.578c10.018,0.264,20.085-0.259,30.021,1.345
		C209.466,475.257,213.646,473.979,214.501,478.796z"/>
	<path display="inline" fill-rule="evenodd" clip-rule="evenodd" fill="#85CEBE" d="M176.643,473.514
		c-9.168-0.661-17.61-4.319-26.434-6.403c-0.058-2.739,1.593-2.391,3.305-1.787C161.229,468.04,168.935,470.781,176.643,473.514z"/>
	<path display="inline" fill-rule="evenodd" clip-rule="evenodd" fill="#86B9A4" d="M173.941,414.359
		c2.969,0,3.667,1.834,3.965,4.414c0.482,4.178,2.4,7.776,5.284,10.847c0.291,0.43,0.21,0.77-0.243,1.021
		c-8.896,12.636-19.523,8.053-24.153-0.7c-1.225-2.316-1.74-4.517,0.293-6.191c4.029-3.318,8.348-6.287,12.546-9.4
		c0.859,1.631-1.213,3.738,0.923,5.368C175.552,418.537,172.988,415.949,173.941,414.359z"/>
	<path display="inline" fill-rule="evenodd" clip-rule="evenodd" fill="#85B8A4" d="M216.828,426.919
		c2.568,1.77,0.921,5.003,2.717,7.335c2.162,2.807,5.02,6.618,2.154,10.091c-2.902,3.518-7.33,5.348-12.203,4.619
		c-5.295-0.79-8.432-4.122-9.938-9.108c-0.615-2.034,0.448-3.854,1.578-5.191c3.046-3.602,6.867-6.387,10.793-8.993
		c0.967,1.544-1.121,3.804,1.18,5.063C215.513,430.584,215.342,427.938,216.828,426.919z"/>
	<path display="inline" fill-rule="evenodd" clip-rule="evenodd" fill="#716B53" d="M216.828,426.919
		c0.16,2.449,0.849,5.151-2.502,6.119c-1.513,0.437-2.813,0.024-3.796-1.34c-1.859-2.579,0.271-4.175,1.399-6.027
		C213.723,425.457,215.354,425.876,216.828,426.919z"/>
	<path display="inline" fill-rule="evenodd" clip-rule="evenodd" fill="#77694D" d="M182.947,430.642
		c0.113-0.333,0.192-0.675,0.241-1.022c4.551-0.644,8.485,1.695,12.701,2.655c0.979,0.223,2.1,0.797,1.721,2.138
		c-0.384,1.361-1.764,1.304-2.558,0.847C191.249,433.071,186.469,433.497,182.947,430.642z"/>
	<path display="inline" fill-rule="evenodd" clip-rule="evenodd" fill="#6E654E" d="M173.941,414.359
		c1.115,1.829,3.585,3.257,1.976,5.926c-0.99,1.642-2.768,2.147-4.334,1.371c-4.732-2.346-1.809-4.872,0.05-7.308
		C172.402,414.353,173.171,414.355,173.941,414.359z"/>
</g>
<g display="none">
	<path display="inline" fill-rule="evenodd" clip-rule="evenodd" fill="#C07A51" d="M57.202,76.355
		c1.487-5.09,1.809-10.749,7.371-13.759c0.777-0.421,1.233-2.287,1.102-3.395c-0.799-6.676,2.835-6.882,8.224-6.957
		c17.777-0.25,34.932,2.604,51.55,8.748c4.086,1.51,8.203,3.307,10.083,7.815c2.976,11.458,1.392,22.334-4.047,32.77
		c-3.094,5.935-3.773,12.709-6.341,18.837c-2.403,9.04-4.289,18.149-3.933,27.589c0.192,5.088-0.821,9.639-6.215,11.735
		c-2.945,1.146-2.43,4.725-4.704,6.277c-0.289-0.069-0.577-0.14-0.865-0.207c-4.367-1.454-8.874-2.474-13.424-2.802
		c-14.349-1.032-27.338-6.975-40.855-11.015c2.892,1.197,6.023,1.634,8.88,2.892c2.81,1.239,6.188,1.325,8.301,4.017
		c0.273,0.594,0.255,1.17-0.093,1.726c-7.169-1.324-13.806-4.799-21.204-5.229c-0.769-0.045-2.163-0.536-2.169-0.842
		c-0.139-6.748-6.521-12.041-3.601-19.769c3.148-8.331,7.326-16.442,8.153-25.55c-0.394-9.109,0.566-18.128,1.78-27.132
		C55.474,80.041,55.518,77.918,57.202,76.355z"/>
	<path display="inline" fill-rule="evenodd" clip-rule="evenodd" fill="#C9834B" d="M72.235,160.627
		c-0.007-0.337-0.016-0.674-0.024-1.012c8.805-0.132,17.467,0.502,25.47,4.715c-0.5,0.749-1.103,0.844-1.808,0.286
		C88.027,163.083,79.812,163.752,72.235,160.627z"/>
	<path display="inline" fill-rule="evenodd" clip-rule="evenodd" fill="#C07A51" d="M95.873,164.616
		c0.591-0.082,1.181-0.164,1.771-0.246c4.285-1.833,8.147,0.478,12.167,1.241c0,0,0.48,0.405,0.481,0.405
		C105.015,170.399,100.551,166.408,95.873,164.616z"/>
	<path display="inline" fill-rule="evenodd" clip-rule="evenodd" fill="#FBD882" d="M120.093,116.684
		c4.373,0.52,2.588,3.935,2.215,5.837c-1.854,9.453-3.685,18.843-3.548,28.578c0.078,5.634-7.428,10.267-13.1,9.908
		c-18.845-1.186-36.068-8.85-54.155-13.017c-4.192-0.966-4.906-4.637-4.817-8.368c0.097-4.063,1.581-7.839,3.132-11.468
		c3.481-8.146,5.555-16.671,7.532-25.243c5.85,1.725,11.035,4.818,16.246,7.868c-0.88,2.727-3.63,2.537-5.597,3.488
		c-11.252,5.439-12.903,17.356-3.442,25.582c9.929,8.63,21.723,10.598,34.212,8.729c8.524-1.274,12.449-9.481,9.581-17.75
		c-4.126-11.897-12.386-18-24.831-18.768c-2.476-0.152-5.081,0.26-7.322-1.293c-0.779-3.896,2.343-4.697,4.755-4.927
		c4.014-0.382,7.61-1.784,11.285-3.132c2.601-0.252,4.989,0.525,7.331,1.518c2.329,1.213,3.592,3.354,4.88,5.517
		C108.995,117.375,111.919,118.647,120.093,116.684z"/>
	<path display="inline" fill-rule="evenodd" clip-rule="evenodd" fill="#F9D681" d="M58.476,92.625
		c0.329-4.099-1.117-8.399,1.377-12.254c4.866-2.577,9.814-4.973,14.159-7.024c-2.623,0.834-5.513,2.896-8.738,4.106
		c-1.704,0.64-3.173,3.157-5.465,1.137c0.217-5.415,0.178-10.911,5.878-14.067c2.212-1.225,0.727-4.573,3.123-5.771
		c6.321,0.571,11.57,2.953,14.804,8.763c1.052,7.591,0.504,15.216,0.391,22.825c-0.029,1.976-0.103,4.238-2.606,5.075
		c-5.411-0.875-4.753-5.266-5.211-9.026c-0.222-1.821-0.244-3.889-2.345-4.617c-1.83-0.635-2.434,0.942-3.032,2.263
		c-0.37,0.805-0.881,1.506-1.495,2.136C66.154,89.079,63.451,92.764,58.476,92.625z"/>
	<path display="inline" fill-rule="evenodd" clip-rule="evenodd" fill="#FBC071" d="M58.476,92.625
		c3.54-2.216,7.128-4.368,9.994-7.482c0.46,0.417,0.836,0.902,1.171,1.424c0.746,1.163,1.131,2.817,3.093,2.372
		c0.409-0.094,0.721-0.422,0.802-0.834c0.38-1.954-1.281-2.32-2.438-3.07c-0.52-0.338-0.993-0.727-1.395-1.204
		c-0.264-2.806,1.15-4.597,3.811-4.509c2.287,0.076,3.17,2.181,3.862,4.28c1.119,3.393-1.12,7.561,2.424,10.358
		c3.796,5.818,3.498,8.282-1.591,12.832c-1.24,1.109-2.643,2.034-3.775,3.27c-0.297,0.109-0.594,0.217-0.891,0.325
		c-6.56,0.023-11.346-3.792-16.192-7.477C56.64,99.364,58.117,96.055,58.476,92.625z"/>
	<path display="inline" fill-rule="evenodd" clip-rule="evenodd" fill="#FABF70" d="M120.093,116.684
		c-5.614,4.34-11.46,2.976-15.629-3.687c-1.552-2.479-3.024-5.008-4.534-7.514c-0.174-1.554-1.176-3.156,0.26-4.624
		c1.833-1.25,3.6-2.613,5.668-3.488c2.773-0.474,4.751-3.461,7.97-2.546c0.482,0.412,0.804,0.941,1.128,1.48
		c0.792,1.318,1.363,3.917,3.361,2.366c2.045-1.587-0.454-2.72-1.463-3.848c-0.276-0.309-0.563-0.61-0.79-0.973
		c0.008-0.66,0.253-1.208,0.733-1.66c3.761-1.625,5.956,0.076,7.117,3.526c0.789,2.347,1.751,4.636,2.402,7.029
		C126.229,108.278,123.85,112.789,120.093,116.684z"/>
	<path display="inline" fill-rule="evenodd" clip-rule="evenodd" fill="#FBC213" d="M82.287,66.345
		c-3.974-3.458-9.021-5.009-13.481-7.594c-1.549-2.178-1.957-4.184,1.629-3.789c2.634,0.29,5.409,1.052,7.708,2.341
		c15.756,8.832,32.838,11.609,50.589,11.463c3.912-0.032,6.504,0.565,3.702,5.181c-0.899,0.746-1.949,0.829-3.048,0.708
		c-12.704-0.033-25.009-3.635-37.652-4.221C88.051,70.306,84.803,69.17,82.287,66.345z"/>
	<path display="inline" fill-rule="evenodd" clip-rule="evenodd" fill="#FAD882" d="M130.369,66.643
		c-13.837-0.057-27.685-1.386-40.94-6.26c-3.044-1.12-5.825-2.954-9.286-4.748C93.518,53.113,122.582,59.741,130.369,66.643z"/>
	<path display="inline" fill-rule="evenodd" clip-rule="evenodd" fill="#F1CD77" d="M130.47,73.776
		c0.655,0.055,1.313,0.112,1.966,0.168c3.971,10.877-1.502,19.749-6.118,28.801c-1.864-1.081-3.662-2.412-3.581-4.738
		c0.164-4.712-2.518-5.653-6.399-5.316c-0.082-0.304-0.165-0.608-0.251-0.912c1.199-3.302,2.28-6.682,4.02-9.729
		c1.921-3.367,4.338-6.317,8.496-6.306c-1.38-0.726-3.336,1.153-5.076,0.338c-1.095-0.512-4.133-0.587-1.188-2.897
		C125.049,73.439,127.834,72.573,130.47,73.776z"/>
	<path display="inline" fill-rule="evenodd" clip-rule="evenodd" fill="#F7BF17" d="M109.811,165.611
		c-4.193,0.934-8.145-0.522-12.169-1.239c-8.11-3.541-17.072-2.535-25.431-4.758c-6.313-2.781-12.893-4.732-19.604-6.269
		c-1.163-0.266-2.817-0.166-2.339-2.038c0.38-1.485,1.681-1.594,3.041-1.231c3.415,0.906,7.058,1.298,10.22,2.746
		c11.921,5.459,24.579,7.579,37.41,9.326C103.978,162.562,107.771,162.167,109.811,165.611z"/>
	<path display="inline" fill-rule="evenodd" clip-rule="evenodd" fill="#CE9A5D" d="M59.809,78.59
		c5.34-0.962,9.563-4.814,15.043-5.538c-4.896,2.676-9.284,6.304-15,7.316C59.838,79.776,59.823,79.184,59.809,78.59z"/>
	<path display="inline" fill-rule="evenodd" clip-rule="evenodd" fill="#FDFAE7" d="M76.02,110.268
		c8.011-0.046,15.888,0.393,23.038,4.726c7.416,4.494,13.058,16.93,11.587,24.705c-1.21,6.404-5.735,9.753-11.041,10.576
		c-13.048,2.021-25.56-0.059-36.059-8.925c-11.196-9.456-8.402-24.356,5.354-29.349c1.542-0.559,3.426-0.139,4.644-1.617
		c0,0.002-0.04-0.023-0.04-0.023C74.316,109.627,75.153,109.555,76.02,110.268z"/>
	<path display="inline" fill-rule="evenodd" clip-rule="evenodd" fill="#FBD882" d="M76.02,110.268
		c-0.839,0.03-1.678,0.062-2.517,0.093c0.903-1.127,1.619-2.509,2.743-3.337c4.698-3.459,5.893-7.75,3.554-13.064
		c3.725,1.218,2.443-1.75,2.461-3.181c0.096-8.144,0.034-16.29,0.026-24.435c3.189-0.126,5.51,2.984,8.829,2.369
		c0.429,0.486,0.683,1.051,0.774,1.689c0.417,5.053,4.348,4.297,7.468,4.2c7.789-0.24,12.937,3.217,16.077,10.241
		c1.162,2.602,0.706,5.21,0.893,7.828l0.009,0.021c-0.001,0.41,0,0.821,0.002,1.23c-0.487,1.132-1.123,1.973-2.535,1.296
		c-2.523,1.252-5.048,2.504-7.572,3.756c-1.73-2.278-0.434-4.814-0.587-7.224c-0.365-5.756-2.882-8.248-8.474-8.604
		c-4.038-0.258-5.628,1.502-5.605,5.427c0.019,3.281,0.466,6.634-0.8,9.824c-0.371,1.226-1.938,1.219-2.453,2.322
		c1.324,1.229,4.218,0.354,4.229,3.234C88.01,108.609,80.368,105.13,76.02,110.268z"/>
	<path display="inline" fill-rule="evenodd" clip-rule="evenodd" fill="#B56631" d="M92.542,103.953
		c-2.505-2.104-6.534-0.52-8.991-3.732c1.931-2.157,4.225-0.841,6.231-0.995c3.618-0.394,7.043,0.01,9.981,2.417
		c0.853,1.245,2.3,2.466,0.166,3.84C97.467,104.974,95.004,104.464,92.542,103.953z"/>
	<path display="inline" fill-rule="evenodd" clip-rule="evenodd" fill="#AE582F" d="M69.703,83.83
		c3.417-0.352,6.601-0.178,6.099,4.512c-0.224,2.091-1.916,3.316-4.041,3.006c-3.733-0.544-3.601-3.384-3.291-6.205
		C68.881,84.705,69.292,84.269,69.703,83.83z"/>
	<path display="inline" fill-rule="evenodd" clip-rule="evenodd" fill="#FCD883" d="M99.764,101.644
		c-3.487-0.146-6.929-0.477-9.981-2.418c0.03-3.352-0.259-6.75,0.188-10.048c0.378-2.795-2.336-7.12,3.353-7.835
		c6.752-0.849,11.804,1.423,13.453,5.972c1.462,4.033,0.516,7.818-0.544,11.66C103.827,99.262,102.544,102.266,99.764,101.644z"/>
	<path display="inline" fill-rule="evenodd" clip-rule="evenodd" fill="#B15A32" d="M113.804,95.218
		c0.845-0.432,1.69-0.864,2.534-1.296c2.998,0.023,5.408,0.81,5.063,4.488c-0.205,2.198-1.735,3.241-3.835,3.106
		C113.373,101.248,113.624,98.179,113.804,95.218z"/>
	<path display="inline" fill-rule="evenodd" clip-rule="evenodd" fill="#D99C40" d="M91.301,69.837
		c-0.046-0.376-0.107-0.752-0.185-1.125c13.115,1.688,26.23,3.376,39.35,5.064c-3.018,0.058-6.038,0.116-9.06,0.173
		c-0.479,0.399-0.948,0.992-1.575,0.953C110.13,74.302,100.281,74.501,91.301,69.837z"/>
	<path display="inline" fill-rule="evenodd" clip-rule="evenodd" fill="#FBD882" d="M91.301,69.837
		c10.035,1.37,20.07,2.741,30.105,4.111c2.528,2.258,5.697,0.382,8.95,1.582c-6.117,1.989-9.396,6.204-10.805,11.974
		c-0.509,2.087-1.592,3.793-3.224,5.167c-0.933-0.671-1.081-1.65-1.267-2.716c-1.693-9.778-6.257-13.59-16.067-13.673
		c-2.477-0.021-5.205,0.783-7.375-0.664C89.323,74.09,89.16,71.891,91.301,69.837z"/>
</g>
<g display="none">
	<path display="inline" fill-rule="evenodd" clip-rule="evenodd" fill="#B47053" d="M340.808,288.933
		c-3.526,1.251-7.016,2.645-10.874,2.438c-1.624-0.086-2.874,0.427-3.12,2.272c-2.721,0.193-4.383-1.433-5.853-3.394
		c-0.353-0.729-0.573-1.512-0.841-2.278c-0.622-1.78-1.406-3.496-3.589-3.649c-2.27-0.159-3.098,1.561-3.819,3.299
		c-0.39,0.936-0.719,1.897-1.254,2.773c-0.761,1.051-1.732,1.584-3.057,1.243c-2.552-2.022-5.839-1.868-8.708-2.935
		c-3.586-1.333-7.732-1.967-9.092-6.465c-3.963-6.74-3.971-11.949-0.023-15.375c4.104-3.562,11.313-2.829,16.696,1.682
		c2.3,1.925,3.79,4.439,5.167,7.039c3.651,6.893,7.229,7.326,12.736,1.623c1.74-1.804,3.496-3.637,5.477-5.152
		c5.208-3.979,12.095-3.416,15.769,1.114c3.044,3.753,2.096,8.353-2.785,13.282C342.758,287.34,341.755,288.108,340.808,288.933z"/>
	<path display="inline" fill-rule="evenodd" clip-rule="evenodd" fill="#B37154" d="M262.864,325.536
		c5.795-6.881,12.952-12.21,20.058-17.596c1.271-0.874,2.542-1.747,3.813-2.621c0.458-0.695,0.96-0.728,1.504-0.099
		c0.274,0.611,0.35,1.248,0.233,1.908c-3.13,5.559-9.187,7.755-13.655,11.795c-4.54,4.105-8.936,8.146-11.68,13.806
		c-6.411,13.223-3.948,24.28,7.698,33.352c14.39,11.208,30.968,12.984,48.357,11.189c2.483-0.256,4.949-1.159,7.372,0.221
		c0.603,0.463,0.719,1.028,0.354,1.692c-21.723,5.531-42.109,3.078-59.72-11.543c-12.836-10.657-14.542-23.674-6.328-38.208
		C261.589,328.164,262.202,326.837,262.864,325.536z"/>
	<path display="inline" fill-rule="evenodd" clip-rule="evenodd" fill="#B47256" d="M326.919,379.184c0-0.396,0-0.792,0-1.188
		c0.384-1.829,1.739-2.78,3.256-3.564c19.359-10.009,22.696-30.884,11.651-48.031c-1.779-2.762-4.288-5.229-4.292-8.876
		c0.121-0.672,0.498-1.144,1.124-1.413c1.516,1.819,3.03,3.638,4.545,5.458c2.122,4.275,4.62,8.407,6.301,12.849
		C356.64,353.263,346.384,373.402,326.919,379.184z"/>
	<path display="inline" fill-rule="evenodd" clip-rule="evenodd" fill="#A3664E" d="M287.882,305.199
		c6.695-4.693,13.391-9.385,20.086-14.077c1.126-0.013,2.124-0.276,2.693-1.378c3.729-0.563,7.455-0.65,11.177,0.054
		c1.659,1.281,3.317,2.563,4.977,3.846c3.205,7.881,7.776,15.04,11.843,22.467l-0.578,0.226c-2.192,0.506-3.277-1.049-4.482-2.391
		c-2.604-3.564-4.356-7.623-6.588-11.407c-0.625-1.061-1.404-2.03-1.936-3.19c-0.378,1.032,0.352,1.947,0.237,2.943
		c-0.119,1.039-0.176,2.191-1.294,2.555c-1.2,0.391-1.771-0.71-2.431-1.481c-2.054-2.406-1.027-6.874-5.179-7.852
		c-3.582-0.843-4.427,4.401-7.992,3.683c-1.051-0.598-1.161-1.58-1.029-3.176c-2.722,1.311-4.624,3.301-6.794,4.877
		c-4.275,1.711-6.997,7.076-12.704,5.418C287.891,305.942,287.889,305.57,287.882,305.199z"/>
	<path display="inline" fill-rule="evenodd" clip-rule="evenodd" fill="#7E6B70" d="M311.067,281.165
		c-3.093-3.046-5.594-6.033-9.011-7.953c-1.988-1.117-3.552-1.088-4.908,0.731c-1.277,1.713-1.107,3.166,0.336,4.986
		c2.771,3.492,7.382,3.63,10.783,6.273c-8.352,1.801-15.247-1.353-18.551-8.303c-2.049-4.311,2.269-10.816,7.194-10.838
		C303.902,266.03,310.846,273.085,311.067,281.165z"/>
	<path display="inline" fill-rule="evenodd" clip-rule="evenodd" fill="#7E6A70" d="M323.158,283.402
		c2.839-5.005,6.273-9.372,12.045-11.634c4.274-1.675,7.619-0.153,9.792,3.212c2.276,3.523,0.5,7.021-2.209,9.566
		c-4.669,4.391-10.498,5.611-16.957,5.214c2.978-1.962,2.962-2.108,5.615-2.378c1.954-0.197,3.695-0.799,5.24-1.883
		c2.225-1.56,3.853-3.725,2.202-6.367c-1.824-2.918-4.75-2.469-7.123-0.754c-2.617,1.895-4.872,4.287-7.284,6.462
		C324.038,284.362,323.598,283.883,323.158,283.402z"/>
	<path display="inline" fill-rule="evenodd" clip-rule="evenodd" fill="#7D6A70" d="M321.838,289.798
		c-3.735,1.927-7.462,2.03-11.178-0.053c0.946-2.758,0.258-6.731,4.383-7.288C320.462,281.728,321.651,285.418,321.838,289.798z"/>
	<path display="inline" fill-rule="evenodd" clip-rule="evenodd" fill="#F3E8E3" d="M326.618,285.699
		c2.606-2.352,4.32-4.119,6.267-5.575c1.206-0.901,2.867-2.394,4.188-0.167c1.29,2.172-0.178,3.58-1.952,4.441
		C332.875,285.49,330.434,285.967,326.618,285.699z"/>
	<path display="inline" fill-rule="evenodd" clip-rule="evenodd" fill="#F5EFED" d="M307.813,281.883
		c-3.357-0.226-6.201-1.023-8.406-3.42c-0.806-0.875-2.011-1.83-0.892-3.103c0.956-1.087,2.287-0.686,3.383-0.019
		C304.413,276.871,306.241,279.053,307.813,281.883z"/>
	<path display="inline" fill-rule="evenodd" clip-rule="evenodd" fill="#7D6A70" d="M334.504,313.766
		c1.193,0.857,2.387,1.714,3.578,2.57c1.881,6.704,6.922,11.677,9.546,18.134c6.662,16.383-3.027,36.559-17.539,41.552
		c-1.147,0.395-2.118,1.304-3.17,1.975c-13.097,1.613-26.219,2.977-39.101-1.216c-10.759-3.502-20.19-9.094-26.679-18.707
		c-5.82-8.623-3.52-23.654,4.935-33.13c4.338-4.861,9.5-8.762,14.676-12.664c2.47-1.861,5.632-2.941,7.136-5.967
		c4.942-0.673,7.862-5.279,12.548-6.451c1.984,2.324,1.09,5.216,1.429,7.828c0.987,7.615,3.513,10.772,10.901,12.512
		c6.427,1.513,12.463,0.928,17.548-3.866C331.522,315.196,332.7,313.957,334.504,313.766z"/>
	<path display="inline" fill-rule="evenodd" clip-rule="evenodd" fill="#7F6A6F" d="M308.024,298.691
		c2.096-0.035,2.478-1.925,3.532-3.154c2.985-3.482,7.806-2.416,9.282,1.936c0.729,2.148,1.574,4.256,2.796,7.535
		c0.974-3.807-1.682-6.418,0.072-9.188c1.716,2.184,4.241,3.586,4.482,6.613c1.76,4.706,2.85,9.46-1.745,13.171
		c-4.347,3.51-9.563,3.273-14.308,1.386c-4.989-1.983-7.091-6.528-6.355-11.758C306.085,303.074,302.225,299.035,308.024,298.691z"
		/>
	<path display="inline" fill-rule="evenodd" clip-rule="evenodd" fill="#7D6A70" d="M308.024,298.691
		c-2.026,3.941-1.3,7.918-0.006,11.832c1.045,3.16,3.061,5.329,6.602,5.799c10.816,1.435,13.546-1.337,13.569-13.889
		c2.574,3.518,4.729,7.267,6.314,11.334c-6.576,10.818-17.646,9.986-25.676,7.118c-7.636-2.729-9.605-8.331-8.391-21.022
		c1.969-3.669,6.291-4.33,8.74-8.086C311.028,295.273,307.446,296.48,308.024,298.691z"/>
	<path display="inline" fill-rule="evenodd" clip-rule="evenodd" fill="#7D6164" d="M325.583,339.062
		c4.634,0.805,4.96,3.779,2.51,6.684c-2.396,2.84-2.994,5.438-1.27,8.494c2.239,3.972-0.083,6.394-2.854,8.378
		c-3.583,2.568-7.403,3.191-11.555,0.698c-3.318-1.992-5.602-4.513-5.508-8.411c0.07-2.893,2.746-3.851,4.857-5.228
		c2.654-1.733,6.72-1.641,7.643-5.694C323.367,344.73,325.623,343.338,325.583,339.062z"/>
	<path display="inline" fill-rule="evenodd" clip-rule="evenodd" fill="#7D6163" d="M277.721,337.667
		c-0.495,3.381,2.067,4.568,4.2,6.3c3.285,2.668,6.802,5.684,3.521,10.507c-3.315,4.875-11.056,5.592-16.171,1.57
		c-4.14-3.254-3.923-7.104-0.751-10.892c1.892-2.257,2.182-4.333,0.45-6.788c-2.241-3.177-1.173-5.036,2.518-5.649
		C271.782,336.612,274.537,337.41,277.721,337.667z"/>
	<path display="inline" fill-rule="evenodd" clip-rule="evenodd" fill="#9C9595" d="M348.245,348.684
		c-0.492,2.717-0.829,7.259-5.736,9.226c-2.875,1.151-5.29-0.003-3.771-3.013c2.551-5.057,1.891-10.203,2.045-15.386
		c0.045-1.55,0.272-3.172,1.868-3.649c2.146-0.644,2.926,1.191,3.549,2.738C347.292,341.31,348.499,344.012,348.245,348.684z"/>
	<path display="inline" fill-rule="evenodd" clip-rule="evenodd" fill="#683E37" d="M299.237,354.148
		c-1.933,2.93,2.359,3.982,1.915,6.93c-3.125-0.397-5.837-2.928-10.073-1.353c1.712-2.729,6.468-3.373,3.121-6.872
		c-1.559-2.527-1.671-4.806,1.509-6.022c2.068-0.79,4.237-0.494,5.678,1.353C303.707,351.158,301.171,352.592,299.237,354.148z"/>
	<path display="inline" fill-rule="evenodd" clip-rule="evenodd" fill="#7D6164" d="M299.237,354.148
		c0.42-1.673,3.13-2.605,1.687-4.846c-1.054-1.634-2.822-1.631-4.481-1.367c-3.12,0.494-2.113,2.992-2.243,4.918
		c-1.665-1.013-4.662-1.401-3.352-4.233c1.231-2.659,3.373-4.848,6.853-4.543c3.323,0.292,5.672,2.331,6.196,5.285
		C304.408,352.238,302.005,353.707,299.237,354.148z"/>
	<path display="inline" fill-rule="evenodd" clip-rule="evenodd" fill="#663B34" d="M325.583,339.062
		c1.19,2.188,2.397,4.554,0.083,6.582c-2.656,2.327-4.281-0.647-6.261-1.661C319.247,339.559,322.27,339.129,325.583,339.062z"/>
	<path display="inline" fill-rule="evenodd" clip-rule="evenodd" fill="#663B34" d="M277.721,337.667
		c-1.985,1.098-4.037,2.178-6.167,0.483c-2.145-1.707-0.927-3.609-0.065-5.436C276.624,330.518,277.569,333.594,277.721,337.667z"/>
	<path display="inline" fill-rule="evenodd" clip-rule="evenodd" fill="#9D9497" d="M341.351,363.362
		c-0.344,1.576-1.37,2.775-2.846,2.952c-1.736,0.208-2.633-1.145-2.622-2.782c0.011-1.643,0.97-2.778,2.658-2.923
		C340.431,360.445,340.924,361.915,341.351,363.362z"/>
</g>
<g display="none">
	<path display="inline" fill-rule="evenodd" clip-rule="evenodd" fill="#BA7150" d="M264.106,167.291
		c3.615-2.138,5.421-5.835,6.829-9.367c3.093-7.763,8.471-13.906,13.229-20.512c1.254-1.74,2.465-3.563,5.066-2.167
		c8.111,4.353,15.153,0.172,21.841-3.417c3.47-1.862,5.861-2.057,9.081-0.175c3.605,2.108,7.315,4.254,11.256,5.526
		c6.443,2.081,8.608,6.257,6.835,12.356c-1.121,3.855,1.156,4.477,3.667,4.782c6.834,0.833,9.33,3.575,9.32,10.546
		c-0.002,1.855-1.612,4.04-0.18,5.469c5.655,5.642,1.436,10.159-1.292,14.942c-0.928,1.628-2.242,3.313-2.389,5.055
		c-0.432,5.122-3.568,7.381-8.014,8.25c-2.717,0.53-4.106,1.463-5.069,4.425c-2.088,6.424-11.085,9.126-16.326,4.93
		c-3.043-2.438-4.798-0.696-6.332,1.031c-7.066,7.959-15.082,3.292-22.736,1.79c-3.378-0.664-1.134-5.293-4.085-7.154
		c-5.192-3.273-8.122-7.457-8.771-14.544c-0.686-7.478-5.347-14.429-11.931-19.247C264.106,168.97,264.106,168.131,264.106,167.291z
		"/>
	<path display="inline" fill-rule="evenodd" clip-rule="evenodd" fill="#BA704F" d="M401.464,202.638
		c-1.784-0.012-3.762-1.005-5.021,1.289c-2.406,4.382-6.767,4.007-9.965,2.424c-9.023-4.466-20.334-7.051-24.554-16.935
		c-2.258-5.287-5.623-15.129-1.406-18.372c6.177-4.749,5.387-8.393,4.365-14.157c-0.284-1.599,3.562-3.77,5.225-5.901
		c5.136-6.579,11.275-9.893,19.803-7.097c3.41,1.117,6.653,0.292,9.307-2.258c2.405-2.311,4.433-1.765,7.175-0.053
		c7.761,4.842,13.425,12.007,20.428,17.664c3.766,3.043-0.303,4.979-1.254,7.342c-0.5-0.302-0.855-0.725-1.075-1.264
		c-0.244-0.811-0.3-1.649-0.362-2.479c-2.303-3.375-4.624-6.702-9.328-6.727c-3.717,1.708-7.001,0.587-10.139-1.514
		c-0.791-0.287,0.055,0.219-0.534-0.301c-1.77-1.566-6.761-0.159-5.306-4.366c1.138-3.292,4.532-4.672,8.335-3.092
		c-0.688-1.439-2.339-2.168-3.41-1.915c-5.819,1.378-11.601,2.669-17.617,3.079c-2.288,0.156-1.877,2.846-1.755,4.715
		c0.538,2.538,2.266,4.311,3.867,6.19c1.423,1.67,3.395,3.213,2.132,5.885c-8.742-1.361-14.932-7.326-14.667-14.219
		c-1.839,1.453-3.259,3.256-4.894,4.836c-1.842,1.781-2.454,3.763-1.147,6.169c2.655,4.883,0.695,7.871-4.059,9.671
		c-4.306,2.006-2.745,4.783-0.987,7.564c1.924,2.167,5.092,2.503,6.98,4.722c0.231,0.548,0.31,1.116,0.246,1.707
		c-0.517,2.353-3.557,2.023-4.364,3.995c3.496,6.106,8.341,9.905,15.638,9.73c1.53,1.783,2.608,4.125,5.383,4.386
		c5.49,0.665,6.229-2.994,6.463-7.105c0.083-0.903,0.279-1.777,0.587-2.628c3.097-5.461,7.274-9.969,12.189-13.834
		c2.664-0.752,5.394-2.397,7.814,0.511c0.09,0.934-0.383,1.635-1.127,2.046c-7.412,4.099-10.467,11.013-12.194,18.791
		C402.123,201.711,401.862,202.211,401.464,202.638z"/>
	<path display="inline" fill-rule="evenodd" clip-rule="evenodd" fill="#BA714D" d="M377.563,87.88
		c9.567-1.153,10.722,5.06,13.655,12.399c2.264,5.666,0.895,9.114-0.205,13.768c-1.169,4.951-1.679,9.951-7.802,11.396
		c-1.825,0.431-1.548,2.132-1.96,3.522c-1.653,5.573-7.817,8.67-12.969,6.181c-2.467-1.192-3.368,0.07-4.745,1.341
		c-7.043,6.504-13.876,5.428-21.205,0.099c-5.421-3.944-8.989-8.042-10.784-14.21c-0.392-1.346-1.27-2.947-2.404-3.622
		c-11.864-7.06-5.25-16.046-2.401-24.361c1.476-4.307,4.227-8.172,6.35-12.264c0.916-1.765,2.179-2.465,4.099-1.718
		c0.283,0.324,0.424,0.675,0.424,1.052c0,0.393-0.036,0.588-0.099,0.588c-1.006,2.471-3.419,4.128-4.102,6.996
		c0.646-0.655,1.018-1.376,1.71-1.672c2.793-1.199,6.138-1.936,8.017,0.587c1.724,2.313-1.789,3.62-2.87,5.437
		c-0.314,0.529-0.754,0.983-1.132,1.479c-2.271,2.815-4.388,5.855-8.511,6.054c-3.432,2.117-4.881,5.138-4.179,9.131
		c3.914,3.279,7.176,7.313,8.937,11.902c2.155,5.618,5.797,9.412,10.611,12.497c0.519,0.333,0.927,0.843,1.471,1.156
		c3.36,1.935,11.043,1.583,11.584-0.792c1.069-4.695-3.15-6.235-6.032-8.342c-1.866-1.365-4.346-1.351-6.513-2.056
		c-2.006-0.652-4.778-0.785-4.249-4.148c2.086-1.646,4.447-2.242,7.061-1.885c6.88,2.834,14.268,4.529,19.053,11.293
		c2.608,3.687,6.443,2.937,8.269-1.382c1.41-3.336,3.458-5.3,6.549-7.061c4.251-2.424,4.054-7.578,5.048-11.649
		c0.489-2.003-3.151-0.785-4.588-1.868c-0.859-0.44-1.434-1.083-1.488-2.092c0.35-1.697,1.742-2.771,2.521-4.208
		c2.474-4.561,1.012-8.037-3.935-9.365c-1.914-0.513-4.283-0.142-5-2.787C375.917,88.239,376.343,87.54,377.563,87.88z"/>
	<path display="inline" fill-rule="evenodd" clip-rule="evenodd" fill="#BC724F" d="M337.146,81.848
		c0.016-0.479,0.031-0.958,0.046-1.437c6.424,1.49,11.482-1.75,16.004-5.376c2.898-2.323,5.22-2.817,8.462-1.368
		c2.273,1.015,4.721,1.831,7.173,2.22c7.018,1.115,10.243,4.776,8.732,11.994c-0.442,0.459-0.885,0.918-1.329,1.377
		c-1.327,0.245-2.188-0.623-2.195-1.64c-0.043-6.605-4.679-8.227-9.843-9.327c2.777,7.485-1.734,17.156-8.51,18.205
		c-1.249-4.051,1.866-7.642,1.203-11.625c-1.468-6.234-1.358-5.966-7.246-3.529C345.702,82.971,341.491,86.763,337.146,81.848z"/>
	<path display="inline" fill-rule="evenodd" clip-rule="evenodd" fill="#A37159" d="M425.185,164.413
		c0.127,0.723,0.255,1.446,0.382,2.17c-2.124,3.39-1.76,7.396-1.341,10.831c0.708,5.808-1.082,10.363-3.005,15.681
		c-1.866,5.159-4.541,7.472-8.751,9.778c-3.934,2.156-7.387,2.38-11.005-0.235c-0.008-0.409-0.022-0.817-0.039-1.226
		c0.424-0.476,0.919-0.902,1.55-0.993c12.621-1.836,17.283-8.014,17.336-21.132C420.332,174.131,418.883,167.802,425.185,164.413z"
		/>
	<path display="inline" fill-rule="evenodd" clip-rule="evenodd" fill="#F7F1E1" d="M348.472,166.068
		c-0.675,5.918-5.355,7.439-9.946,9.06c-1.328-0.165-2.367-1.008-3.558-1.5c-2.287-0.821-2.643-3.02-3.5-4.866
		c-0.34-0.376-0.691-0.736-1.087-1.043c-4.939-1.759-4.034,4.042-6.712,5.183c-0.706,0.512-1.466,0.922-2.255,1.284
		c-1.693,1.248-3.538,2.096-5.675,2.182c-2.246,0.11-4.499-0.052-6.744,0.048c-4.01,0.178-6.821-1.078-7.204-5.559
		c-0.377-4.419-2.268-1.336-3.666-0.723c-2.8-0.267-3.646-2.487-4.622-4.59c-0.304-1.456-0.165-2.798,1-3.876
		c5.372-1.464,10.533-4.539,16.413-2.18c3.734-4.536,7.469-9.07,11.203-13.606c1.984-0.933,2.069,2.444,4.329,1.638
		c-0.256-3.648-3.196-5.904-4.712-8.859c-0.575-1.121-2.777-2.789,0.62-3.24c4.476,2.289,8.952,4.579,13.428,6.868
		c-0.577,6.184-4.509,10.261-7.896,13.033c-1.505,1.68-0.181,1.974-0.87,1.494c-0.051-0.036,0.034-0.13,0.174-0.338
		c1.752-2.611,4.414-4.098,7.015-5.653c0.081-0.049,0.347,0.158,0.492,0.284c0.291,0.257,0.301,0.625,0.066,1.064
		c2.508,4.63,6.931,4.045,11.125,4.086c1.005,0.791,0.885,1.934,0.313,2.688C343.528,162.481,345.636,164.363,348.472,166.068z"/>
	<path display="inline" fill-rule="evenodd" clip-rule="evenodd" fill="#F7F1E0" d="M338.72,177.008c3.945,0,7.889,0,12.336,0
		c-1.476,6.399-6.117,10.602-6.997,16.521c-0.32,2.153-3.61,2.373-5.797,3.037c-2.267,0.688-5.072,0.606-5.949,3.621
		c-6.675,0.5-13.11-0.128-18.856-4.003c-6.291-3.686-12.582-7.37-18.873-11.054c-1.354,0.511-1.708-0.265-1.792-1.392
		c3.168-3.21,5.724-7.301,10.91-7.628c4.256-0.164,8.442,0.299,12.553,1.412c4.023,1.98,4.311,8.085,9.594,8.683
		c3.394,1.302,5.538,4.075,8.343,7.354c-2.084-2.839-2.499-5.176-1.585-7.72c0.473-0.822,1.128-1.332,2.133-1.223
		c1.148,0.525,1.839,1.446,2.242,2.672C337.434,183.808,332.909,179.522,338.72,177.008z"/>
	<path display="inline" fill-rule="evenodd" clip-rule="evenodd" fill="#BFC2AF" d="M286.939,186.355
		c1.877,2.607,5.029,1.596,7.41,2.62c6.98,3.004,11.859,8.447,15.618,14.858c1.418,2.418-3.512,7.942-7.3,7.125
		c-5.081-1.095-12.4,1.401-14.246-6.845c-0.147-0.661-1.148-1.175-1.819-1.667c-4.494-3.284-7.177-7.038-8.101-13.147
		c-1.107-7.32-5.036-14.109-10.669-19.468c6.284-1.989,9.117,2.445,12.154,6.509C281.99,179.892,284.622,183.015,286.939,186.355z"
		/>
	<path display="inline" fill-rule="evenodd" clip-rule="evenodd" fill="#F7F2E1" d="M289.075,150.651
		c0.818-2.79,4.081-1.713,5.574-3.474c-6.819-4.017-6.845-4.035-10.628,1.703c-0.889,1.349-1.62,2.466-3.409,1.209
		c-1.54-1.082-1.649-2.204-0.526-3.66c2.044-2.649,3.77-5.601,6.096-7.967c2.953-3.003,5.78,0.424,8.633,0.919
		c4.319,0.75,7.896-1.318,11.308-2.973c5.395-2.617,8.078-1.668,8.674,4.369c0.934,3.07-1.227,4.522-3.417,4.802
		c-10.01,1.279-15.629,7.354-18.833,16.349c-5.934,4.168-4.06-1.639-4.993-3.893C287.296,155.417,288.16,153.029,289.075,150.651z"
		/>
	<path display="inline" fill-rule="evenodd" clip-rule="evenodd" fill="#BAB9A7" d="M291.663,161.004
		c0.371-0.736,0.932-1.436,1.083-2.215c1.698-8.732,7.656-12.597,15.816-14.036c2.603-0.459,5.476-0.584,6.233-3.976
		c2.327,3.15,0.066,5.852-0.75,8.755c-0.944,3.355-3.505,6.199-3.129,9.957c-5.506,0.968-11.012,1.937-16.52,2.907
		c-0.625,0.729-1.345,1.624-2.352,1.088C291.086,162.974,291.114,161.942,291.663,161.004z"/>
	<path display="inline" fill-rule="evenodd" clip-rule="evenodd" fill="#F5D9C4" d="M286.939,186.355
		c-4.714-1.143-5.513-5.661-7.725-8.961c0.389-4.669,4.359-6.481,7.273-9.137c0.53-0.218,1.086-0.279,1.653-0.219
		c1.968,0.729,3.961,1.564,5.197-1.135c0.307-0.469,0.708-0.821,1.21-1.053c1.178,1.315,2.356,2.632,3.535,3.948
		c1.012,5.576-1.164,10.007-4.973,13.853c0.491,0.492,0.982,0.985,1.474,1.478C292.23,186.751,289.47,185.838,286.939,186.355z"/>
	<path display="inline" fill-rule="evenodd" clip-rule="evenodd" fill="#F6F0E0" d="M286.712,168.637
		c-2.5,2.919-4.999,5.837-7.499,8.756c-2.718-4.139-6.185-7.151-11.381-7.561c0.114-5.545,4.581-8.898,6.874-13.342
		c0.494-0.957,2.213,0.131,3.269,0.711C281.742,160.36,284.11,164.588,286.712,168.637z"/>
	<path display="inline" fill-rule="evenodd" clip-rule="evenodd" fill="#D1CDBF" d="M286.712,168.637
		c-4.753-2.406-6.498-7.109-8.737-11.436c5.527,0.912,7.874-3.565,11.101-6.549c0.044,2.615,0.09,5.23,0.135,7.845
		c-1.376,2.606-0.191,4.995,0.636,7.418c-0.032,1.322-0.568,2.284-1.915,2.658C287.524,168.564,287.117,168.586,286.712,168.637z"/>
	<path display="inline" fill-rule="evenodd" clip-rule="evenodd" fill="#D2CCB7" d="M313.457,196.184
		c6.215,1.667,12.815,1.515,18.856,4.003c0.038,2.917-1.014,5.114-3.99,6.04c-4.898-0.63-8.381-4.336-12.848-5.907
		C314.802,198.941,314.13,197.562,313.457,196.184z"/>
	<path display="inline" fill-rule="evenodd" clip-rule="evenodd" fill="#D0C1B1" d="M338.72,177.008
		c-3.774,4.95,1.219,9.742,0.131,15.054c-4.114-0.789-2.146-5.266-4.25-7.053c-4.773-6.089-4.524-8.395,1.363-12.616
		c1.356,0.441,2.079,1.475,2.562,2.733C338.591,175.754,338.656,176.382,338.72,177.008z"/>
	<path display="inline" fill-rule="evenodd" clip-rule="evenodd" fill="#D3CFC1" d="M322.357,135.42
		c-1.469,3.825,2.902,4.712,3.771,7.423c0.566,1.767,3.86,2.348,2.619,4.95c-0.467,0.979-1.836,1.91-2.941,2.132
		c-3.178,0.639-1.749-3.3-3.685-4.043c2.375-5.239-3.625-7.683-4.014-12.1C319.964,133.198,321.083,134.523,322.357,135.42z"/>
	<path display="inline" fill-rule="evenodd" clip-rule="evenodd" fill="#D1CBBC" d="M334.765,152.172
		c-3.746,1.884-6.973,4.381-9.389,7.992c0.879-7.552,8.099-11.283,10.409-17.877C337.618,145.808,336.427,149.015,334.765,152.172z"
		/>
	<path display="inline" fill-rule="evenodd" clip-rule="evenodd" fill="#F5F0E1" d="M315.475,200.32
		c5.47-0.612,8.902,3.207,12.848,5.908C320.668,209.538,319.131,208.831,315.475,200.32z"/>
	<path display="inline" fill-rule="evenodd" clip-rule="evenodd" fill="#CFC9B3" d="M348.472,166.068
		c-2.229-0.123-4.881,0.528-5.938-2.262c-0.942-2.487,1.417-3.628,2.589-5.255c0.45-0.625,0.521-1.522,0.766-2.293
		C349.256,158.868,348.76,162.496,348.472,166.068z"/>
	<path display="inline" fill-rule="evenodd" clip-rule="evenodd" fill="#84CCBC" d="M407.714,181.008
		c-3.766,4.254-7.532,8.508-11.298,12.763c-3.707,4.008-7.757,7.264-13.744,6.296c-7.041,0.845-11.235-3.134-15.692-7.973
		c-3.268-3.548-3.333-4.521,1.133-5.702c1.175-0.31,2.267-0.938,3.397-1.421c4.391-1.324,4.597,2.437,4.612,4.653
		c0.024,3.758,4.248,0.261,4.672,3.154c0.051,0.347,1.307-1.559,1.598-2.428c1.465-4.369,4.863-9.004-1.057-12.775
		c-1.209-0.677-2.425-1.26-3.814-0.553c-0.889,3.342-2.577,5.927-6.21,6.688c-2.706-0.943-5.733-1.237-7.63-3.803
		c4.686-2.732,1.298-6.495,1.257-9.831c3.955-1.698,6.675-3.749,3.075-8.347c-1.75-2.236-1.553-4.332,0.709-6.574
		c2.613-2.591,4.661-5.754,8.012-8.096c-2.869,12.508,8.237,12.741,13.393,17.608c2.565-4.319,7.356-1.732,11.061-3.567
		c-1.354-4.43-4.474-5.976-8.821-6.06c-3.266-0.063-6.725,0.69-9.621-1.646c-1.396-6.062,0.824-8.487,7.096-7.475
		c3.744,0.604,7.358,0.215,10.607-2.449c2.021-1.658,9.917,2.102,10.772,4.841c0.155,0.496,0.012,1.288-0.31,1.688
		c-0.913,1.136-1.983,0.577-2.599-0.281c-3.685-5.126-6.112-1.181-9.138,1.075c1.982,1.604,4.976-0.082,6.147,2.525
		c2.266,3.702,5.612,7.259,1.58,11.804c-0.963,1.124-1.455,2.509-2.058,3.835c-0.464,0.789-1.114,1.317-2.041,1.447
		c-1.38-0.015-2.175-1.029-3.322-2.037c-0.483,2.332,0.982,4.541-0.016,6.66c-1.497,2.312-4.376,2.056-6.389,3.411
		c2.349-1.09,5-1.489,7.117-3.112c3.713-0.917,5.939,1.106,7.77,3.922C408.244,179.887,408.159,180.474,407.714,181.008z"/>
	<path display="inline" fill-rule="evenodd" clip-rule="evenodd" fill="#62AFAF" d="M425.185,164.413
		c-3.738,5.271-3.956,11.318-2.971,17.252c0.464,2.802,0.41,5.202-1.431,6.901c-3.073,2.838-1.668,7.845-5.34,10.169
		c-4.301,2.725-8.819,4.543-14.017,2.677c-0.854-8.162,5.254-17.142,13.82-20.322c-0.334-4.153,1.545-7.893,2.195-11.869
		c1.052-4.22,2.78-7.671,8.068-7.012C425.401,162.944,425.293,163.679,425.185,164.413z"/>
	<path display="inline" fill-rule="evenodd" clip-rule="evenodd" fill="#71A597" d="M371.313,183.71
		c1.956-2.762,4.169-5.374,5.082-8.742c1.273,2.02,2.922,2.402,4.951,1.134c5.461,0.875,5.734,4.733,4.74,8.871
		c-1.06,4.407-2.912,8.542-5.695,12.173c-2.538-1.322,1.14-4.042-2.089-4.892c-1.936,0.725,0.228,3.557-2.091,4.686
		c-3.183-3.297,1.391-9.937-4.701-11.97C371.445,184.55,371.378,184.13,371.313,183.71z"/>
	<path display="inline" fill-rule="evenodd" clip-rule="evenodd" fill="#62B0AE" d="M382.747,153.395
		c3.316,0.01,6.736,0.545,9.928-0.081c6.245-1.227,8.372,3.669,11.114,7.163c2.148,2.736-0.989,2.801-2.669,2.971
		c-3.669,0.372-7.486-0.645-10.992,1.222C389.031,160.018,383.796,158.077,382.747,153.395z"/>
	<path display="inline" fill-rule="evenodd" clip-rule="evenodd" fill="#85B7A2" d="M419.077,169.833
		c-1.277,3.753-1.668,7.807-3.831,11.257c-2.48-2.87-5.024,0.266-7.532-0.081c0-0.364,0.003-0.728,0.008-1.09
		c-0.575-3.91-5.584-5.636-4.989-10.123c0.485-0.507,0.971-1.013,1.455-1.52c1.324-0.473,2.819-0.103,4.073-0.862
		c1.089-0.733,1.934-1.955,3.481-1.816C414.553,166.378,416.604,168.469,419.077,169.833z"/>
	<path display="inline" fill-rule="evenodd" clip-rule="evenodd" fill="#84CCBB" d="M419.077,169.833
		c-3.95,1.575-5.019-2.57-7.553-3.805c-0.647-4.409,0.304-8.291,3.748-11.349c5.417-0.214,7.555,4.028,10.238,7.531
		C422.254,163.813,418.743,165.201,419.077,169.833z"/>
	<path display="inline" fill-rule="evenodd" clip-rule="evenodd" fill="#6DAA9F" d="M415.271,154.679
		c-1.249,3.783-2.498,7.566-3.747,11.349c-0.738,0.844-1.476,1.689-2.214,2.534c-1.757-0.933-3.063-2.332-4.12-3.987
		c5.309-3.691-0.32-7.508,0.131-11.254C408.453,155.13,411.615,156.713,415.271,154.679z"/>
	<path display="inline" fill-rule="evenodd" clip-rule="evenodd" fill="#72ADA2" d="M364.939,170.077
		c0.117,0.393,0.107,0.955,0.37,1.152c5.607,4.208,5.376,5.474-1.627,8.679C361.385,176.284,357.982,172.517,364.939,170.077z"/>
	<path display="inline" fill-rule="evenodd" clip-rule="evenodd" fill="#6AADA3" d="M382.672,200.066
		c4.978-1.234,9.111-4.311,13.744-6.296c-0.074,0.854-0.148,1.708-0.223,2.562c-1.778,3.831-4.368,6.836-8.46,8.314
		C384.846,204.446,383.519,202.521,382.672,200.066z"/>
	<path display="inline" fill-rule="evenodd" clip-rule="evenodd" fill="#8AC5B6" d="M387.733,204.646
		c2.821-2.771,5.641-5.542,8.46-8.314C395.832,204.041,394.672,205.179,387.733,204.646z"/>
	<path display="inline" fill-rule="evenodd" clip-rule="evenodd" fill="#FAD47F" d="M356.238,96.515
		c4.785-3.021,6.04-8.418,8.197-13.019c1.331-2.838-3.768-4.181-3.59-7.615c7.626,1.663,15.425,2.929,15.39,13.375
		c0.721,0.394,1.411,1.048,2.167,1.135c3.586,0.409,7.726-0.715,8.959,4.617c1.14,4.926-1.03,8.03-4.817,10.545
		c-2.822-0.693-5.373,3.768-8.341,0.443c-0.799-1.506-1.055-4.089-3.707-1.825c-4.115,6.944-1.214,10.23,10.799,12.238
		c-0.119-3.379-3.998-7.767,2.512-9.366c2.264,0,4.527,0,6.914,0c-1.11,4.257-0.886,10.186-3.459,11.893
		c-5.937,3.936-7.62,11.191-13.498,14.761c-2.091,1.27-4.191,0.5-4.958-1.075c-3.927-8.066-12.406-9.211-19.088-13.074
		c-2.356-5.429,1.081-7.205,5.324-8.471c0.509-0.167,1.039-0.302,1.585-0.367c0.834-0.098-0.292-0.021,0.546-0.025
		c0.641-0.004,0.671,0.02,0.009-0.125c-2.691,0.167-4.324-1.132-5.362-3.433c-0.932-2.068-1.905-4.129-3.874-5.484
		c-0.476-0.439-0.79-0.972-0.978-1.586C349.212,96.66,352.494,95.982,356.238,96.515z"/>
	<path display="inline" fill-rule="evenodd" clip-rule="evenodd" fill="#E4A555" d="M342.296,120.729
		c1.368,1.883,3.394,2.279,5.517,2.391c5.489,0.288,9.01,3.758,12.516,7.448c3.338,3.512,1.32,6.325-1.748,7.224
		c-3.45,1.011-9.144,1.826-10.808-0.022c-3.979-4.42-11.078-5.251-12.668-12.846c-1.171-5.592-5.431-10.69-10.502-14.34
		c3.971-2.791,6.392,0.159,9.005,2.41C336.393,115.688,338.592,119.051,342.296,120.729z"/>
	<path display="inline" fill-rule="evenodd" clip-rule="evenodd" fill="#F8C070" d="M342.296,120.729
		c-5.189,0.981-6.242-3.794-8.872-6.375c1.998-4.195,1.435-7.801-2.188-10.95c-1.136-0.988-2.516-2.267-1.592-4.211
		c4.497,1.047,5.887-3.108,8.563-5.112c2.503-0.524,2.788,1.569,2.838,2.963c0.104,2.859,1.984,4.35,3.735,6.04
		c0.142,0.42,0.127,0.806-0.1,1.114c-0.36,0.485-0.81,0.89-1.246,1.306c0.536-0.116,0.665-0.678,1.063-0.97
		c1.567-1.137,2.728-2.654,4.027-4.033c2.987,0.252,3.559,2.888,4.193,4.904c1.003,3.189,2.871,4.348,5.994,3.987
		c0.235,1.968-1.236,1.648-2.384,1.811c-0.336,0.048-0.763-0.354-1.015,0.173c0.458,0.006,0.733,0.252,0.825,0.741
		c-3.724,1.107-6.841,2.741-6.42,7.432C347.243,119.943,344.77,120.336,342.296,120.729z"/>
	<path display="inline" fill-rule="evenodd" clip-rule="evenodd" fill="#FAD681" d="M348.525,100.502
		c-0.206,2.308,0.434,5.459-3.77,3.782l-0.002-0.001c-6.284-0.767-4.053-6.998-6.546-10.199c-0.186-3.039,3.343-3.248,4.787-5.993
		c-3.632,0.324-7.569-2.581-8.617,3.222c-0.205,1.138-1.147,1.789-2.317,1.405c-1.237-0.405-1.416-1.583-0.875-2.524
		c1.708-2.971,2.228-6.82,5.959-8.347c4.404,1.909,8.271,0.186,12.101-1.789c6.855-3.535,6.855-3.535,9.253,3.96
		c-2.354,3.23-6.313,3.953-9.407,6.021c-4.602,3.077-5.253,6.873-1.837,10.458C347.678,100.497,348.102,100.5,348.525,100.502z"/>
	<path display="inline" fill-rule="evenodd" clip-rule="evenodd" fill="#F2B062" d="M383.806,107.044
		c-5.739,3.98,0.625,8.21-0.474,12.776c-2.232-0.729-3.743-2.746-7.292-1.678c-4.348,1.308-6.853-4.089-8.909-8.067
		c-1.88-3.639,0.148-5.378,2.756-7.071c1.931,0.187,3.501,1.142,4.964,2.327c0.94,1.325,1.91,1.333,2.715-0.071
		c1.89-3.296,3.401-1.172,4.976,0.294C382.964,106.051,383.385,106.547,383.806,107.044z"/>
	<path display="inline" fill-rule="evenodd" clip-rule="evenodd" fill="#FAD681" d="M329.644,99.194
		c1.458,1.691,2.863,3.435,4.389,5.063c3.386,3.61,4.059,7.001-0.609,10.098c-2.644-1.953-4.982-4.617-8.822-3.772
		C323.804,105.689,325.853,102.056,329.644,99.194z"/>
	<path display="inline" fill-rule="evenodd" clip-rule="evenodd" fill="#E4A555" d="M347.254,100.496
		c-3.894,1.277-5.174,1.303-4.146-3.963c1.769-9.057,9.421-9.439,15.391-12.515c0.873,4.461-1.583,8.319-2.262,12.498
		C353.244,97.842,350.249,99.168,347.254,100.496z"/>
	<path display="inline" fill-rule="evenodd" clip-rule="evenodd" fill="#CEBAAA" d="M333.364,186.208
		c-0.309,2.867,0.754,5.5,1.083,8.594c-2.825-2.478-5.649-4.956-8.474-7.434c-3.971-4.236-7.091-8.763-5.134-15.024
		c0.822-0.048,1.644-0.095,2.466-0.142C330.407,174.179,331.62,180.385,333.364,186.208z"/>
	<path display="inline" fill-rule="evenodd" clip-rule="evenodd" fill="#D1C2B3" d="M293.109,183.65
		c1.658-4.618,3.316-9.235,4.973-13.853c0.817-1.824,1.634-3.647,2.452-5.47c1.018,9.691,6.649,12.168,15.136,10.594
		c0.465,0.681,0.369,1.268-0.288,1.765c-3.962,1.602-8.157-1.333-12.103,0.619C298.675,177.474,297.746,183.532,293.109,183.65z"/>
	<path display="inline" fill-rule="evenodd" clip-rule="evenodd" fill="#F2D7C3" d="M333.364,186.208
		c-3.183-4.79-5.148-10.454-10.059-14.004c3.435-8.133,3.802-8.332,8.617-4.691c-0.853,1.228-3.167,0.994-3.201,3.201
		c2.215-0.022,1.979-2.339,3.202-3.194c2.471,0.693,0.605,4.98,4.042,4.874c-4.307,3.789-3.12,8.17-1.362,12.615
		C334.189,185.409,333.776,185.809,333.364,186.208z"/>
	<path display="inline" fill-rule="evenodd" clip-rule="evenodd" fill="#F5E1CE" d="M315.789,176.014
		c-0.046-0.364-0.085-0.729-0.119-1.093c2.362,0.424,3.701-1.206,5.168-2.578c-0.036,5.606,3.729,9.913,5.133,15.027
		c-6.446,0.326-7.217-4.985-9.112-9.178C316.172,177.629,315.748,176.936,315.789,176.014z"/>
	<path display="inline" fill-rule="evenodd" clip-rule="evenodd" fill="#CECBBD" d="M323.118,162.746
		c-0.598,3.481-2.462,5.215-4.092,7.078c-1.1,1.255-1.39,4.386-3.762,2.94c-1.499-0.915-2.475-3.411-2.788-5.344
		c-0.337-2.074,1.817-2.34,3.479-2.721C318.147,164.194,320.302,163.523,323.118,162.746z"/>
	<path display="inline" fill-rule="evenodd" clip-rule="evenodd" fill="#F5D9C4" d="M289.122,165.985
		c-1.656-2.518-1.671-5.015,0.089-7.49c0.4,1.276-0.609,2.835,0.701,3.841c0.153,0.117,1.149-0.861,1.752-1.332
		c0.077,2.103,1.391,1.773,2.733,1.391c0.049,1.153,0.098,2.305,0.148,3.456c0.002-0.001-0.41,0.359-0.41,0.359
		C292.436,166.782,290.743,167.176,289.122,165.985z"/>
	<path display="inline" fill-rule="evenodd" clip-rule="evenodd" fill="#A95D3D" d="M315.789,176.014
		c1.019,0.401,0.983,1.32,1.07,2.178c-4.527-0.295-9.054-0.592-13.581-0.887C307.188,174.353,311.671,176.951,315.789,176.014z"/>
	<path display="inline" fill-rule="evenodd" clip-rule="evenodd" fill="#B0674A" d="M289.122,165.985
		c1.725-1.126,3.392-0.953,5.014,0.225c0.414,1.843,1.011,3.862-1.305,4.818c-2.4,0.992-3.919-0.326-4.899-2.455
		C288.328,167.71,288.725,166.848,289.122,165.985z"/>
	<path display="inline" fill-rule="evenodd" clip-rule="evenodd" fill="#6BA59A" d="M402.733,169.796
		c1.456,3.477,6.563,5.154,4.99,10.123c-2.467-1.26-3.975-4.406-7.407-3.763c-0.779-0.096-1.209-0.558-1.368-1.305
		c-0.609-2.976-2.002-5.895-0.848-9.083C400.87,165.922,400.961,168.804,402.733,169.796z"/>
	<path display="inline" fill-rule="evenodd" clip-rule="evenodd" fill="#68AAA1" d="M382.099,170.106
		c9.837-0.639,9.837-0.639,7.542,6.511C386.598,175.056,383.498,173.822,382.099,170.106z"/>
	<path display="inline" fill-rule="evenodd" clip-rule="evenodd" fill="#78745C" d="M398.948,174.851
		c0.455,0.435,0.911,0.87,1.367,1.305c-3.056,2.445-6.507,3.634-11.036,3.646C392.252,176.621,395.979,176.488,398.948,174.851z"/>
	<path display="inline" fill-rule="evenodd" clip-rule="evenodd" fill="#6B5E45" d="M405.191,164.575
		c2.876-0.226,4.34,1.01,4.118,3.987c-1.81,1.79-3.47,0.827-5.121-0.284C404.172,166.947,404.025,165.583,405.191,164.575z"/>
	<path display="inline" fill-rule="evenodd" clip-rule="evenodd" fill="#6D654C" d="M381.345,176.103
		c-0.312,1.688-0.726,3.58-2.902,3.266c-2.546-0.365-2.28-2.497-2.049-4.402C378.249,174.455,380.027,174.275,381.345,176.103z"/>
	<path display="inline" fill-rule="evenodd" clip-rule="evenodd" fill="#B56034" d="M374.853,105.331
		c-2.25,0.496-3.959-0.165-4.964-2.327c0.846-1.536,1.876-3.104,3.874-2.169C375.723,101.751,374.87,103.728,374.853,105.331z"/>
	<path display="inline" fill-rule="evenodd" clip-rule="evenodd" fill="#BF7339" d="M356.139,112.118
		c-0.929-0.149-1.859-0.296-3.182-0.508c1.885-1.975,4.389-0.465,5.755-2.216c1.481,0.273,3.213-0.645,4.661,1.184
		C361.274,112.766,358.442,111.411,356.139,112.118z"/>
	<path display="inline" fill-rule="evenodd" clip-rule="evenodd" fill="#B86637" d="M344.756,104.284
		c0.21,2.151,0.458,4.412-2.608,4.581c-1.094,0.06-2.05-0.888-1.984-1.991c0.184-3.061,2.438-2.814,4.59-2.59L344.756,104.284z"/>
	<path display="inline" fill-rule="evenodd" clip-rule="evenodd" fill="#B0694A" d="M331.924,167.516
		c0.026,0.212,0.043,0.421,0.083,0.626c0.491,2.541,0.273,4.819-2.934,5.022c-1.96,0.125-3.327-1.291-3.008-3.188
		C326.666,166.403,329.34,166.862,331.924,167.516z"/>
</g>
<g display="none">
	<path display="inline" fill-rule="evenodd" clip-rule="evenodd" fill="#BF7556" d="M860.912,109.113
		c0.229,1.008,0.634,2.012,0.66,3.025c0.579,22.025,1.16,44.051,1.609,66.079c0.064,3.116-0.588,6.244-0.838,9.372
		c-0.573,7.181-5.102,10.765-11.52,12.383c-5.947,1.499-12.07,1.944-18.128,1.01c-11.354-1.751-22.525-1.022-33.772,1.101
		c-23.311,4.4-34.235-6.488-30.841-30.249c2.189-15.321,6.63-30.319,5.768-46.08c-0.78-14.265-2.692-28.377-4.541-42.512
		c-0.874-6.686-1.282-13.375,0.397-20.006c2.095-8.271,6.354-12.674,12.51-13.046c6.548-0.394,11.92,3.493,15.175,11.077
		c3.268,7.613,4.326,15.754,5.258,23.864c0.65,5.669,3.453,8.275,9.04,8.124c1.258-0.033,2.52-0.011,3.775-0.075
		c10.468-0.534,12.638-2.721,13.789-13.049c0.717-6.434,0.822-12.999,3.211-19.159c2.759-7.114,10.094-11.392,17.559-10.266
		c6.229,0.939,9.16,4.338,10.503,12.179c-0.481,1.043-1.076,1.852-2.396,1.159c-0.82-0.695-1.357-1.597-1.743-2.579
		c-1.596-4.068-4.227-6.825-8.91-6.587c-4.733,0.24-8.45,2.259-10.583,6.715c-2.506,5.235-2.948,10.899-3.434,16.543
		c-1.284,14.954-7.007,19.953-22.019,19.152c-7.928-0.425-11.974-4.023-12.836-11.873c-0.598-5.445-1.799-10.762-2.832-16.117
		c-0.521-2.696-1.428-5.261-2.81-7.65c-2.446-4.233-5.537-7.672-10.966-6.798c-5.433,0.875-7.425,5.213-8.305,9.912
		c-1.242,6.643-1.148,13.406-0.076,20.06c2.037,12.651,3.1,25.403,4.226,38.143c0.986,11.162-0.756,22.182-2.894,33.124
		c-1.729,8.849-3.798,17.65-3.241,26.792c0.525,8.625,5.109,14.123,13.368,15.717c0.721,0.07,1.421,0.21,2.118,0.387
		c6.119,0.103,12.063-1.224,18.038-2.203c7.936-1.302,15.845-1.339,23.802-0.272c6.051,0.811,12.148,0.977,18.175-0.079
		c7.653-1.341,10.907-4.42,11.273-12.059c0.621-12.974,0.975-25.994-0.268-38.959c-0.782-8.172-0.957-16.309-0.118-24.474
		C859.944,117.214,857.502,112.461,860.912,109.113z"/>
	<path display="inline" fill-rule="evenodd" clip-rule="evenodd" fill="#B36540" d="M860.912,109.113
		c-1.053,3.81,0.943,7.954-1.275,11.636c-2.361-2.034-2.147-4.864-2.167-7.528c-0.101-13.95-0.092-27.903-0.006-41.854
		c0.016-2.479-0.063-5.046,1.834-7.067c0.409-0.471,0.819-0.944,1.229-1.415C861.898,78.283,860.458,93.706,860.912,109.113z"/>
	<path display="inline" fill-rule="evenodd" clip-rule="evenodd" fill="#F7B5B7" d="M859.298,64.299
		c0.112,18.816,0.225,37.633,0.338,56.449c-1.019,18.02,1.976,35.953,1.171,53.97c-0.121,2.721-0.011,5.452-0.134,8.171
		c-0.477,10.564-4.215,14.66-14.775,15.766c-3.733,0.393-7.632,0.709-11.289,0.084c-14.942-2.55-29.566-0.324-44.207,2.254
		c-1.446,0.254-2.929,0.405-4.184-0.68c-0.106-1.537,0.764-3.114-0.378-5.007c-1.547,1.595,0.37,3.554-0.733,4.893
		c-9.029-0.88-14.373-6.96-15.096-16.912c-0.632-8.695,0.779-17.199,2.867-25.508c5.337-21.236,3.129-42.408,0.182-63.612
		c-1.155-8.308-2.462-16.607-1.816-25.021c0.224-2.899,0.568-5.94,1.658-8.586c1.608-3.905,3.943-7.474,8.894-7.865
		c4.831-0.382,8.474,1.357,11.203,5.471c5.204,7.841,6.025,16.889,7.098,25.778c1.063,8.808,3.861,11.702,12.892,11.688
		c0.42,0,0.84,0,1.26-0.007c12.57-0.21,16.386-3.779,17.493-16.249c0.333-3.749,0.764-7.492,1.256-11.223
		c1.264-9.583,5.759-14.481,13.858-15.21C853.248,52.369,855.762,54.663,859.298,64.299z"/>
	<path display="inline" fill-rule="evenodd" clip-rule="evenodd" fill="#F8CDCF" d="M785.106,200.201
		c-0.327-0.534-0.593-1.121-0.994-1.591c-1.339-1.57-2.177-3.183-0.413-4.954c0.981-0.986,2.276-1.339,3.337-0.279
		c1.421,1.419,2.139,3.139,0.776,5.051c-0.477,0.668-1.06,1.26-1.595,1.888l-0.562,0.001L785.106,200.201z"/>
	<path display="inline" fill-rule="evenodd" clip-rule="evenodd" fill="#F5A4A1" d="M814.342,156.108
		c-3.19-0.535-6.985-1.577-7.104-4.896c-0.093-2.645,1.502-6.138,4.166-7.917c3.063-2.044,7.022-2.055,9.072,0.917
		c5.833,8.458,10.549,3.435,15.85-0.425c2.135-1.556,3.589-3.052,2.672-5.58c-1.44-3.969,0.785-5.28,3.93-6.155
		c0.991,1.065,0.272,2.38,0.516,3.556c0.325,1.574,1.122,2.699,2.844,2.758c0.883,0.03,1.611-0.517,1.885-1.347
		c0.597-1.809-0.494-2.679-2.003-3.225c-1.159-0.419-2.417-0.657-3.164-1.796c0.843-4.123,3.499-4.283,6.606-2.813
		c2.644,1.252,5.294,2.444,3.906,6.547c-0.738,2.183-1.39,4.269-2.685,6.204c-1.336,1.995-2.098,4.128,0.073,6.211
		c3.271,3.14,2.898,6.816,0.963,10.334c-2.301,4.179-6.369,6.337-10.878,6.243c-5.162-0.109-10.346-2.397-12.526-7.033
		c-2.016-4.285-4.293-5.225-8.293-4.259c-0.485-0.907-0.452-1.988-0.948-2.886c-0.825-1.491-2.193-1.824-3.66-1.323
		c-1.899,0.65-1.444,2.036-0.95,3.503C814.98,153.819,816.752,155.187,814.342,156.108z"/>
	<path display="inline" fill-rule="evenodd" clip-rule="evenodd" fill="#F5A4A1" d="M791.188,137.143
		c0.856,4.325,4.108,6.503,7.476,8.774c3.721,2.508,8.176,4.796,5.385,10.829c-2.217,4.794-9.362,8.904-14.425,7.785
		c-5.063-1.118-8.218-4.655-10.951-8.741c-1.28-1.912-0.898-3.907,0.459-5.183c3.839-3.611,3.575-6.506,0.116-10.502
		c-3.29-3.8-1.683-8.163,3.285-10.828c4.228-2.268,7.131,0.294,9.597,3.375c0.563,0.704-0.045,1.559-0.861,2.015
		c-1.41,0.429-2.351-0.626-3.466-1.11c-1.584-0.688-2.902-0.42-3.768,1.109c-0.546,0.964-0.584,2.06,0.18,2.944
		c0.975,1.128,2.19,0.982,3.431,0.419C788.769,137.52,789.82,136.691,791.188,137.143z"/>
	<path display="inline" fill-rule="evenodd" clip-rule="evenodd" fill="#C0795B" d="M839.081,75.585
		c0.283-3.516-0.517-7.572,1.408-11.31c1.351-2.621,3.248-4.184,6.433-4.083c3.138,0.1,5.248,1.539,6.205,4.369
		c3.075,9.101,0.452,17.825-2.793,26.141c-1.59,4.073-7.276,3.173-9.46-1.149C838.716,85.281,839.142,80.591,839.081,75.585z"/>
	<path display="inline" fill-rule="evenodd" clip-rule="evenodd" fill="#BE7556" d="M794.131,82.828
		c0.052,4.083,0.282,8.519-4.66,9.845c-5.248,1.408-8.155-2.206-10.19-6.348c-3.089-6.287-5.119-12.829-2.901-19.901
		c0.85-2.708,2.419-5.045,5.41-5.568c3.059-0.535,5.159,1.396,6.785,3.662C792.49,69.98,793.548,76.346,794.131,82.828z"/>
	<path display="inline" fill-rule="evenodd" clip-rule="evenodd" fill="#F8D1D5" d="M772.533,179.374
		c0-1.043-0.169-2.122,0.032-3.125c0.544-2.708,1.674-6.03,4.534-5.791c3.002,0.251,1.681,3.79,1.616,5.822
		c-0.118,3.71,0.827,6.977,2.613,10.133c0.923,1.632,2.048,3.498,0.172,5.102c-2.184,1.869-4.04,0.019-5.468-1.245
		C772.805,187.411,772.487,183.398,772.533,179.374z"/>
	<path display="inline" fill-rule="evenodd" clip-rule="evenodd" fill="#B65741" d="M814.342,156.108
		c0.801-0.871,0.178-1.543-0.375-2.134c-1.598-1.708-3.646-3.446-1.087-5.745c1.901-1.707,4.399-1.409,6.534-0.493
		c3.136,1.345,1.992,3.591,0.758,5.696c-5.304,5.05,2.629,5.216,3.177,9.41c-4.689-1.986-9.214-2.342-14.688,0.877
		C810.214,158.996,814.637,159.549,814.342,156.108z"/>
	<path display="inline" fill-rule="evenodd" clip-rule="evenodd" fill="#B85A46" d="M791.188,137.143
		c-0.326,0.249-0.687,0.462-0.973,0.749c-2.111,2.122-4.193,4.369-7.267,1.391c-2.311-2.238-1.663-4.601,0.169-6.572
		c2.79-3,5.122-1.183,7.251,1.124c0.276,0.299,0.599,0.556,0.899,0.833C791.24,135.492,791.214,136.317,791.188,137.143z"/>
	<path display="inline" fill-rule="evenodd" clip-rule="evenodd" fill="#B65843" d="M843.005,131.999
		c1.031-0.04,2.064-0.146,3.093-0.104c2.619,0.106,4.43,1.31,4.409,4.102c-0.019,2.602-1.619,4.491-4.12,4.588
		c-2.833,0.111-4.338-2.075-5.039-4.643c-0.443-1.621,1.144-2.55,1.581-3.889C842.928,132.053,843.005,131.999,843.005,131.999z"/>
	<path display="inline" fill-rule="evenodd" clip-rule="evenodd" fill="#FBFBFA" d="M840.877,75.402
		c0.449-2.95,0.745-6.065,1.444-9.089c0.493-2.13,1.849-3.651,4.409-3.643c2.501,0.007,4.046,1.425,4.574,3.523
		c1.963,7.789,0.005,15.385-2.55,22.56c-1.198,3.366-4.448,2.31-5.943-0.907C841.004,83.954,841.697,79.651,840.877,75.402z"/>
	<path display="inline" fill-rule="evenodd" clip-rule="evenodd" fill="#FAFAF9" d="M791.791,83.661
		c-0.34,2.191,0.921,5.755-3.005,6.779c-3.487,0.911-5.375-1.709-6.921-4.215c-3.146-5.101-4.542-10.716-4.009-16.702
		c0.253-2.843,1.474-5.483,4.468-6.153c3.076-0.688,4.293,2.031,5.442,4.183C790.356,72.4,791.633,77.634,791.791,83.661z"/>
</g>
<g display="none">
	<path display="inline" fill-rule="evenodd" clip-rule="evenodd" fill="#E4C4BC" d="M556.98,512.299
		c-0.096,0.352-0.132,0.71-0.107,1.074c-5.461,0-10.921,0-16.382,0c-0.053-0.326-0.101-0.653-0.145-0.981
		C545.873,509.19,551.418,509.318,556.98,512.299z"/>
	<path display="inline" fill-rule="evenodd" clip-rule="evenodd" fill="#BC785A" d="M556.98,512.299
		c-5.545,0.03-11.09,0.063-16.634,0.093c-9.289-0.661-18.249-2.741-26.601-6.875c-16.641-8.238-23.801-23.849-19.43-41.863
		c6.057-24.969,26.006-40.389,51.675-39.948c1.662,0.028,3.325,0.004,5.14,0.004c-0.14-3.671-2.121-6.874-1.697-10.493
		c0.75-6.408,5.646-9.038,11.159-5.652c3.702,2.272,6.741,5.423,11.006,7.058c3.245,1.244,3.395,4.358,1.66,7.452
		c-1.381,2.463-3.958,3.643-6.029,5.998c17.036,6.883,24.947,20.437,28.872,37.425c5.44,23.549-9.041,40.339-29.832,45.271
		C563.223,511.49,560.078,511.799,556.98,512.299z"/>
	<path display="inline" fill-rule="evenodd" clip-rule="evenodd" fill="#C1C2BC" d="M531.52,427.606
		c8.43-2.999,16.189-2.025,24.788,1.107c7.398,2.695,6.033,8.043,7.933,12.813c0-1.854-0.035-3.71,0.01-5.563
		c0.042-1.79-2.229-3.802-0.293-5.228c2.148-1.582,4.47,0.136,6.432,1.151c15.406,7.975,22.595,21.564,24.128,38.041
		c1.919,20.624-8.269,33.697-28.589,38.599c-15.957,3.85-31.604,2.732-46.811-3.214c-19.99-7.816-26.913-21.007-22.611-42.238
		c3.263-16.101,19.156-32.624,33.926-35.271c0.819,3.036-3.388,3.574-3.134,6.779c4.213,0.515,7.565-2.66,12.397-2.073
		C536.98,429.295,533.254,430.229,531.52,427.606z"/>
	<path display="inline" fill-rule="evenodd" clip-rule="evenodd" fill="#C1C1BB" d="M561.886,423.919
		c-3.602,2.008-4.68,0.259-5.393-3.135c-0.212-1.011-1.661,5.317-3.506,0.361c-1.427-3.834-2.274-7.79,0.018-11.374
		c1.202-1.882,3.88-1.653,5.782-0.657c3.93,2.056,7.867,4.31,6.85,9.88C566.125,421.96,565.49,424.07,561.886,423.919z"/>
	<path display="inline" fill-rule="evenodd" clip-rule="evenodd" fill="#D9DAD2" d="M531.52,427.606
		c2.821,0.602,5.681,1.075,8.448,1.868c1.146,0.328,2.354,1.392,2.194,2.728c-0.174,1.443-1.612,1.788-2.902,1.757
		c-3.408-0.087-6.646,0.625-9.412,2.57c-2.164,1.523-3.429,0.54-4.711-1.017c-1.525-1.851-0.146-3.031,1.071-4.187
		c1.332-1.263,3.437-1.603,4.224-3.523C530.78,427.659,531.143,427.594,531.52,427.606z"/>
	<path display="inline" fill-rule="evenodd" clip-rule="evenodd" fill="#C1C2BB" d="M561.886,423.919
		c2.253-0.88,2.719-3.119,3.751-4.926c1.617-0.842,1.089-5.352,4.685-2.788c2.962,2.112,1.783,4.431-0.108,6.331
		C567.877,424.882,565.359,427.741,561.886,423.919z"/>
	<path display="inline" fill-rule="evenodd" clip-rule="evenodd" fill="#BFAFA4" d="M569.385,461.771
		c1.123,1.698,2.115,3.502,3.392,5.078c4.963,6.134,4.95,9.521-0.21,13.771c-6.422,5.288-13.815,4.773-18.865-1.313
		c-3.715-4.478-2.613-10.104,3.242-14.361c1.706-1.241,2.173-2.913,3.217-4.396c2.851-4.046,6.921-3.457,9.246,1.223
		c-1.552,1.12-4.259-1.742-5.358,1.739C566.619,465.115,567.709,462.438,569.385,461.771z"/>
	<path display="inline" fill-rule="evenodd" clip-rule="evenodd" fill="#BFAEA2" d="M533.221,469.073
		c-3.71,2.511-5.141,7.491-10.409,8.522c-6.143,1.203-14.053-2.312-16.014-8.113c-0.384-1.134-0.688-2.909-0.101-3.653
		c3.867-4.889,7.684-9.894,12.155-14.195c2.263-2.176,7.92,1.316,7.56,4.854c-0.58,5.693,2.938,8.046,6.823,10.47
		C533.741,467.666,533.726,468.372,533.221,469.073z"/>
	<path display="inline" fill-rule="evenodd" clip-rule="evenodd" fill="#9A664C" d="M533.221,469.073
		c0.004-0.706,0.008-1.411,0.013-2.116c5.825-0.774,11.203,0.851,16.571,2.73C543.968,473.969,538.776,468.324,533.221,469.073z"/>
	<path display="inline" fill-rule="evenodd" clip-rule="evenodd" fill="#BD9986" d="M554.742,444.192
		c2.279-1.706,1.243-5.234,3.706-6.912c1.823,1.703,0.163,3.204-0.312,4.501c-0.839,2.294-0.899,6.499-4.562,5.229
		c-2.953-1.024-1.999-4.744-1.226-7.302c0.505-1.669,0.313-3.883,2.769-5.054C555.857,437.974,553.096,441.056,554.742,444.192z"/>
	<path display="inline" fill-rule="evenodd" clip-rule="evenodd" fill="#D9DBD3" d="M523.691,438.892
		c-0.137,1.76-1.35,2.442-2.885,2.563c-1.732,0.136-3.48-0.227-3.719-2.291c-0.209-1.806,1.265-2.45,2.795-2.576
		C521.622,436.444,523.164,436.843,523.691,438.892z"/>
	<path display="inline" fill-rule="evenodd" clip-rule="evenodd" fill="#8F5742" d="M569.385,461.771
		c-0.604,3.222-1.982,5.684-5.781,4.35c-2.096-0.735-2.53-3.038-1.579-4.703c2.484-4.348,5.002-1.744,7.383,0.356
		C569.406,461.773,569.385,461.771,569.385,461.771z"/>
	<path display="inline" fill-rule="evenodd" clip-rule="evenodd" fill="#905742" d="M520.322,453.101
		c2.248,0.01,3.539,1.262,3.729,3.308c0.223,2.398-1.06,3.92-3.546,4.043c-2.119,0.104-3.707-0.936-3.826-3.103
		C516.551,454.979,518.158,453.701,520.322,453.101z"/>
</g>
<g display="none">
	<path display="inline" fill-rule="evenodd" clip-rule="evenodd" fill="#CA8E74" d="M628.563,194.147
		c2.436,5.624,0.533,11.535,1.154,17.277c0.419,3.879-1.085,7.922,0.994,11.657c2.945,2.91,1.72,6.472,1.559,9.872
		c-1.511,2.991,0.169,6.957-2.863,9.49c-1.821-7.872-0.811-15.849-0.861-23.783C628.493,210.489,628.553,202.318,628.563,194.147z"
		/>
	<g display="inline">
		<path fill-rule="evenodd" clip-rule="evenodd" fill="#B57B5C" d="M628.193,192.9c0.128-0.507,0.255-1.013,0.383-1.519
			c3.58-0.73,3.59,2.063,3.908,4.206c0.493,3.316,0.236,6.689,0.221,10.038c-0.013,2.744,0.771,3.91,3.745,2.721
			c11.395-4.553,21.677-1.867,31.42,4.838c2.661,1.831,5.621,5.407,8.769,3.708c3.183-1.72,1.428-6.122,1.561-9.346
			c0.197-4.808-0.03-9.633,0.063-14.445c0.083-4.271-1.842-5.872-6.055-6.008c-10.657-0.345-21.272-1.701-31.971-1.275
			c-2.453,0.098-5.095,0.278-7.028-1.879c1.872-4.287,5.786-2.29,8.856-2.894c13.227-0.662,26.527,1.144,39.704-1.178
			c0.735-0.115,1.455-0.04,2.156,0.205c1.026,1.149,1.134,2.528,0.992,3.967c-1.414,10.391-0.36,20.842-0.659,31.264
			c-0.123,4.269,2.313,3.774,4.869,2.334c4.531-2.552,7.307-6.756,9.918-11.063c1.947-3.213,3.714-6.561,6.537-9.13
			c1.881-1.712,3.929-3.149,6.703-2.775c0.99,0.303,1.673,0.949,2.096,1.881c-7.559,5.465-10.963,14.317-17.071,20.956
			c-3.94,4.281-8.66,7.222-14.76,7.226c-0.965,0.028-1.926-0.018-2.883-0.139c-6.604-1.154-12.021-4.754-17.427-8.416
			c-6.364-4.313-13.138-6.261-20.86-3.958c-4.504,1.343-8.219,3.092-9.104,8.314c-0.207,1.23-0.33,3.177-2.627,2.565
			c-1.321-7.379-0.245-14.814-0.617-22.209c-0.113-2.249,0.447-4.549-0.469-6.743C628.44,193.731,628.316,193.316,628.193,192.9z"/>
		<path fill-rule="evenodd" clip-rule="evenodd" fill="#D9D9BF" d="M698.796,158.843c4.542,4.136,11.5,4.523,15.277,9.845
			c0.715,0.807,0.886,1.731,0.605,2.758c-2.56,3.86-6.639,5.203-10.753,6.497c-4.516,0.963-8.549,3.471-13.163,4.127
			c-2.199,0.313-4.557,1.531-6.145-1.211c2.092-7.94,7.238-14.331,10.956-21.446C696.172,158.271,697.514,157.873,698.796,158.843z"
			/>
		<path fill-rule="evenodd" clip-rule="evenodd" fill="#BB7353" d="M698.796,158.843c-2.848,0.06-2.836,2.645-3.71,4.344
			c-3.028,5.892-5.979,11.82-10.039,17.103c-0.401,0.593-0.803,0.593-1.204-0.001l-0.432-0.292
			c-0.474-5.077,3.395-8.257,5.479-12.167c4.551-8.532,4.611-8.515-4.75-8.645c-5.832-0.081-11.619,0.495-17.428,0.756
			c-6.833,0.092-13.75-0.127-18.988,5.493c-1.049,0.237-1.77-0.171-2.211-1.128c-0.239-3.063,1.862-4.359,4.16-5.506
			c1.784-1.209,0.865-3.079,1.136-4.659c-0.392-1.539,0.432-1.873,1.724-1.752c2.061,1.009,4.085,2.081,6.497,2.097
			c9.845,0.068,19.689,0.125,29.531-0.048c2.188-0.038,5.03,0.18,4.988-3.273c-0.038-3.213-2.239-4.206-5.078-4.274
			c-9.623-0.232-19.241-0.001-28.864,0.35c-1.518-0.561-2.447-1.507-2.136-3.262c11.423-0.155,22.854-0.141,34.267-0.548
			c4.879-0.175,6.088,2.043,6.036,6.334C697.737,152.791,696.904,155.999,698.796,158.843z"/>
		<path fill-rule="evenodd" clip-rule="evenodd" fill="#C07C5D" d="M692.653,269.667c-19.194,5.536-38.567,3.571-57.98,1.577
			c-4.443-0.456-4.417-2.852-3.908-6.028c-0.249-1.706-1.529-3.719,1.34-4.492c2.141,5.543,6.242,7.152,12.074,7.706
			c10.075,0.959,20.109,0.505,30.159,0.687c4.956,0.09,6.767-2.566,6.276-7.187c-0.573-5.417-1.494-10.807-1.144-16.293
			c0.82-3.416-1.546-7.71,2.784-10.153c3.964,5.685,1.569,12.504,3.278,18.604c0.384,1.367,0.286,2.916,0.108,4.347
			c-0.632,5.128,1.285,8.392,6.54,9.377C692.864,268.297,693.02,268.916,692.653,269.667z"/>
		<path fill-rule="evenodd" clip-rule="evenodd" fill="#B97252" d="M714.067,171.283c0.002-0.865,0.004-1.729,0.006-2.595
			c4.397,0.166,3.354,3.566,3.385,6.04c0.312,24.1,0.525,48.201,0.768,72.304c-0.771,0.447-1.476,0.36-2.114-0.263
			c-1.846-2.836-1.38-6.053-1.426-9.159c-0.203-13.603,0.354-27.213-0.401-40.812c-0.481-0.402-0.963-0.805-1.443-1.207
			C714.231,187.538,712.8,179.342,714.067,171.283z"/>
		<path fill-rule="evenodd" clip-rule="evenodd" fill="#C48367" d="M716.761,247.05c0.488-0.007,0.976-0.013,1.465-0.021
			c2.626,10.962,1.232,14.153-8.846,17.976c-5.397,2.047-10.889,4.059-16.727,4.662c-0.025-0.527-0.05-1.055-0.075-1.582
			c1.178-3.162,4.368-2.782,6.752-3.74c2.703-1.088,5.587-1.667,8.324-2.723c4.687-1.807,8.01-4.387,7.396-10.099
			C714.877,249.91,715.192,248.157,716.761,247.05z"/>
		<path fill-rule="evenodd" clip-rule="evenodd" fill="#C3876C" d="M645.069,164.019c0.318-0.014,0.629-0.07,0.932-0.169
			c0.395,0.43,0.789,0.86,1.184,1.29c0.641,4.098-3.038,5.495-5.051,7.872c-1.99,2.351-4.293,4.442-6.866,6.585
			c2.398,0.956,4.818,0.051,6.761,1.391c0.465,0.418,0.674,0.941,0.632,1.564c-3.011,0.872-6.347-0.688-9.217,1.233
			c-1.112,1.472-2.49,1.4-3.98,0.686c-3.081-2.862-0.033-4.331,1.462-6.024c2.994-3.392,7.469-5.294,9.652-9.522
			C642.075,167.29,643.572,165.654,645.069,164.019z"/>
		<path fill-rule="evenodd" clip-rule="evenodd" fill="#C18161" d="M629.407,242.444c0.934-2.994-0.843-6.373,1.307-9.193
			c1.021,0.649,1.443,1.665,1.705,2.779c0.891,5.41-0.664,10.982,1.092,16.34c0.323,3.007,1.117,6.102-1.525,8.578
			c-1.371,1.145-0.971,2.796-1.222,4.264C628.91,257.709,629.775,250.04,629.407,242.444z"/>
		<path fill-rule="evenodd" clip-rule="evenodd" fill="#C99175" d="M657.471,143.977c0.412,0.583,0.825,1.165,1.237,1.749
			c-2.105,2.36-4.937,4.034-6.518,6.891c-0.46,0.507-0.92,1.016-1.381,1.524C648.308,145.449,649.474,143.67,657.471,143.977z"/>
		<path fill-rule="evenodd" clip-rule="evenodd" fill="#85CEBD" d="M629.463,184.471c1.327-0.228,2.654-0.455,3.98-0.684
			c13.793,0.503,27.584,1.173,41.382,1.41c3.98,0.067,5.611,0.952,5.457,5.223c-0.313,8.576-0.306,17.173-0.116,25.755
			c0.097,4.38-1.432,5.265-5.122,3.348c-1.661-0.863-3.393-1.617-4.97-2.614c-17.829-11.256-19.6-11.497-39.187-4.671
			c0-5.179,0.124-10.094-0.059-14.996c-0.078-2.1,0.87-4.833-2.254-5.855C629.74,189.19,629.544,186.824,629.463,184.471z"/>
		<path fill-rule="evenodd" clip-rule="evenodd" fill="#F8F2E2" d="M716.761,247.05c-0.125,13.501-0.528,13.991-14.112,17.911
			c-3.376,0.975-6.715,2.081-10.07,3.126c-8.144,0.772-8.027,0.767-8.451-7.508c-0.424-8.266-1.113-16.515-1.686-24.772
			c-2.28-4.257-2.571-8.457,0.357-12.565c8.946-0.464,14.143-6.144,18.351-13.197c3.283-5.502,6.06-11.505,13.134-13.247
			c3.022,1.48,2.001,4.297,2.036,6.629C716.531,217.966,716.626,232.509,716.761,247.05z"/>
		<path fill-rule="evenodd" clip-rule="evenodd" fill="#6FB7A5" d="M714.067,171.283c2.608,7.438,0.972,15.104,1.153,22.668
			c0.027,1.145-1.4,1.339-2.38,1.639c-6.648,0.767-9.017,6.24-11.932,11.004c-3.079,5.033-5.991,10.194-11.516,12.979
			c-5.642,2.843-6.85,2.079-6.852-4.079c-0.002-8.813,0.001-17.628,0.077-26.441c0.015-1.806-0.633-3.833,1.163-5.276
			c6.617-3.051,14.06-3.776,20.516-7.283C707.554,174.756,710.811,173.019,714.067,171.283z"/>
		<path fill-rule="evenodd" clip-rule="evenodd" fill="#F8F1E1" d="M631.18,235.607c-0.155-0.786-0.31-1.571-0.465-2.356
			c-0.001-3.391-0.002-6.779-0.003-10.169c0.485-9.369,8.655-14.917,19.889-13.368c5.053,0.698,9.571,2.765,13.692,5.803
			c4.728,3.485,9.681,6.582,15.594,7.697c1.994,1.964,1.46,4.319,1.038,6.654c-3.19,2.523-2.987-1.438-4.415-2.284
			c-2.23-1.977-3.916-0.646-5.552,0.933c-2.316,3.229-4.218,6.859-8.246,8.403c-3.855,0.872-7.753,0.537-11.639,0.441
			c-4.465-0.287-6.883-3.119-8.57-6.893c-1.016-2.274-1.986-4.668-5.25-3.994c-0.51,0.208-1.018,0.414-1.507,0.662
			c-2.333,1.21-1.8,3.395-1.877,5.388C633.802,234.241,633.559,235.874,631.18,235.607z"/>
		<path fill-rule="evenodd" clip-rule="evenodd" fill="#F7F1E1" d="M642.66,182.552c-0.176-0.296-0.326-0.604-0.452-0.925
			c1.602-4.999,4.83-8.257,10.04-9.404c2.1,0.644,3.355,2.431,4.993,3.704c4.661,3.624,10.379,3.255,13.341-0.851
			c2.927-4.056,1.815-8.915-2.857-12.365c-1.165-0.859-2.595-1.417-3.137-2.941c0.282-0.988,0.712-1.712,1.906-1.071
			c8.303-1.235,16.674-0.504,25.005-0.881c3.171-0.144,3.72,1.058,2.296,3.619c-3.446,6.195-6.919,12.374-10.383,18.56
			c-1.912,2.669-4.625,3.063-7.685,3.001C664.707,182.774,653.683,182.689,642.66,182.552z"/>
		<path fill-rule="evenodd" clip-rule="evenodd" fill="#C6886A" d="M679.865,230.556c0.007-2.446,0.015-4.895,0.021-7.342
			c0.971,0.01,1.94,0.019,2.912,0.027c-0.119,4.188-0.238,8.377-0.357,12.565c-2.37,3.215-0.38,6.998-1.357,10.395
			c-1.826-0.422-2.233-1.912-2.603-3.438C678.417,238.639,677.181,234.372,679.865,230.556z"/>
		<path fill-rule="evenodd" clip-rule="evenodd" fill="#B3967B" d="M704.298,176.492c-6.081,4.562-13.449,5.502-20.516,7.286
			c0.02-1.164,0.04-2.327,0.061-3.49c0.401,0.016,0.803,0.016,1.204,0.001c4.442,2.119,8.183-0.821,12.166-1.786
			C699.588,177.928,701.634,176.133,704.298,176.492z"/>
		<path fill-rule="evenodd" clip-rule="evenodd" fill="#F6F0E0" d="M652.19,152.617c-1.113-5.406,2.054-6.761,6.518-6.891
			c10.641-0.175,21.298-0.058,31.917-0.638c6.007-0.328,4.74,3.842,5.263,6.982c0.685,4.119-2.086,4.162-5.06,4.156
			c-11.488-0.024-22.979-0.071-34.463,0.195C653.275,156.492,652.186,155.423,652.19,152.617z"/>
		<path fill-rule="evenodd" clip-rule="evenodd" fill="#EDE8D8" d="M666.494,158.7c-0.515,0.41-1.028,0.818-1.543,1.228
			c-0.576,1.002-1.546,1.495-2.597,1.539c-5.924,0.247-8.566,3.645-9.066,9.208c-0.076,0.853-0.429,1.608-1.215,2.08
			c-4.173,1.973-6.301,6.221-9.865,8.873c-3.329,0-6.657,0-11.314,0c6.068-5.923,11.875-10.562,16.291-16.487
			C651.644,157.063,659.215,158.319,666.494,158.7z"/>
		<path fill-rule="evenodd" clip-rule="evenodd" fill="#F8F2E2" d="M680.076,243.289c0.337,0.97,0.674,1.939,1.009,2.911
			c0.468,6.462,0.862,12.929,1.434,19.38c0.313,3.536-1.432,5.044-4.647,5.201c-14.026,0.688-28.024,0.325-41.97-1.397
			c-5.722-0.708-2.83-5.519-3.916-8.436c0.013-2.871,0.025-5.742,0.038-8.612c-0.633-1.161-0.441-2.432-0.454-3.666
			c-0.064-6.5-0.004-6.648,5.862-4.494c3.292,1.209,5.688,0.265,7.769-2.125c1.491-1.713,2.605-3.838,5.243-4.05
			c3.617-0.292,7.231-0.468,10.817,0.267c0.595,0.178,1.274,0.321,1.695,0.754C667.789,243.994,673.274,246.257,680.076,243.289z"/>
		<path fill-rule="evenodd" clip-rule="evenodd" fill="#F5D9C4" d="M650.097,239.321c-2.787-0.161-1.896,2.775-3.281,3.907
			c-2.796,2.285-5.931,5.662-9.309,2.991c-6.87-5.433-5.057,0.229-5.303,3.603c-0.061,0.838-0.12,1.675-0.18,2.513
			c-1.81-5.498-0.824-11.139-0.845-16.728c2.614-1.097,1.099-3.095,1.034-4.77c-0.104-2.722,0.367-5.009,3.773-5.154
			c1.128,1.41-0.326,3.809,1.797,4.797c0.582,0.271,1.265-0.122,1.339-0.749c0.277-2.33-2.265-2.553-3.144-4.04
			c4.008-2.978,6.052-0.396,7.413,2.905c1.372,3.325,2.462,6.674,6.67,7.313C650.226,237.046,650.231,238.183,650.097,239.321z"/>
		<path fill-rule="evenodd" clip-rule="evenodd" fill="#F5D8C3" d="M680.076,243.289c-7.083,5.428-11.361,4.469-17.686-3.966
			c-0.485-1.365,0.171-2.314,1.153-3.143c2.191-3.067,4.383-6.136,6.574-9.203c3.064,3.684,5.378,2.814,7.176-1.185
			c2.425,0.741,0.796,3.671,2.571,4.764C679.936,234.8,680.007,239.044,680.076,243.289z"/>
		<path fill-rule="evenodd" clip-rule="evenodd" fill="#B0613C" d="M663.544,236.181c0.316,1.306-0.373,2.241-1.153,3.143
			c-4.099,0-8.196-0.001-12.295-0.001c-1.064-1.128-1.039-2.266-0.033-3.413C654.557,236,659.051,236.091,663.544,236.181z"/>
		<path fill-rule="evenodd" clip-rule="evenodd" fill="#B06749" d="M677.294,225.793c0.434,2.523,1.144,5.362-2.367,6.115
			c-3.848,0.825-4.52-1.995-4.81-4.931C672.227,224.863,674.463,223.526,677.294,225.793z"/>
		<path fill-rule="evenodd" clip-rule="evenodd" fill="#B2775A" d="M652.073,172.754c-0.715-9.502,2.164-12.371,12.878-12.827
			c4.631,1.271,8.81,3.155,9.008,8.796c0.166,4.7-1.436,8.573-6.223,10.48c-5.347,2.13-9.725,0.813-13.299-3.576
			C653.654,174.666,652.861,173.712,652.073,172.754z"/>
		<path fill-rule="evenodd" clip-rule="evenodd" fill="#B06547" d="M635.979,225.691c3.609,0.238,7.052,0.829,4.975,5.739
			c-0.814,1.924-2.938,2.376-4.755,1.186c-3.214-2.106-1.565-4.571-0.212-6.933L635.979,225.691z"/>
		<path fill-rule="evenodd" clip-rule="evenodd" fill="#85CBB9" d="M663.228,161.664c2.275,0.636,5.358,0.718,5.18,4.592
			c-0.192,4.171-4.643,7.813-9.12,7.642c-3.45-0.13-5.653-1.545-5.467-5.254C654.003,165.031,658.855,161.413,663.228,161.664z"/>
		<path fill-rule="evenodd" clip-rule="evenodd" fill="#8EC2AF" d="M663.4,176.37c5.061-0.369,6.346-4.542,8.213-8.647
			C672.327,175.048,669.554,177.914,663.4,176.37z"/>
	</g>
</g>
<g display="none">
	<path display="inline" fill-rule="evenodd" clip-rule="evenodd" fill="#BD7A5B" d="M342.225,434.23
		c0.385-8.252,2.23-10.413,10.416-12.105c11.781-2.434,23.618-1.951,35.985-0.459c-2.029-9.979-6.84-19.488-3.059-29.738
		c1.792-0.053,1.962,1.362,2.354,2.582c-0.512,10.036,1.724,19.548,5.642,28.71c2.247,5.254,4.944,10.19,10.183,13.176
		c6.999,3.989,12.429,2.514,16.321-4.452c0.998-1.787,1.284-4.062,3.396-5.116c1.822,0.542,1.555,1.802,1.081,3.132
		c-2.471,6.505-6.6,12.45-6.66,19.767c-1.846,0.139-2.078-1.342-2.585-2.549c-0.71-3.461-3.108-3.212-5.822-2.871
		c-15.539,1.958-30.956,1.291-46.223-2.343c-4.511-1.074-8.93-2.401-12.987-4.665c-2.426-1.355-4.669-1.715-6.94,0.183
		C341.453,436.903,341.827,435.571,342.225,434.23z"/>
	<path display="inline" fill-rule="evenodd" clip-rule="evenodd" fill="#C07D5F" d="M386.653,394.581
		c-0.362-0.885-0.725-1.77-1.087-2.653c4.632-13.23,16.265-15.721,26.064-5.708c7.624,7.791,11.521,17.228,12.963,27.851
		c0.323,1.282,0.75,2.596-1.003,3.232c-2.77-1.614-2.539-4.656-3.225-7.17c-1.904-6.975-4.9-13.375-9.354-19.065
		c-7.404-9.46-16.384-8.742-22.042,1.735C388.451,393.762,387.887,394.59,386.653,394.581z"/>
	<path display="inline" fill-rule="evenodd" clip-rule="evenodd" fill="#BC7653" d="M410.438,471.112
		c-13.329,7.821-27.77,5.808-42.038,4.499c-6.219-0.571-12.258-2.422-17.713-5.689c-4.774-2.861-8.743-6.399-9.697-12.292
		c-0.47-1.454,0.338-1.775,1.542-1.75c12.366,19.436,31.973,17.27,50.882,16.874c5.206-0.11,10.127-2.259,15.173-3.509
		C409.666,469.409,410.549,469.771,410.438,471.112z"/>
	<path display="inline" fill-rule="evenodd" clip-rule="evenodd" fill="#C48B70" d="M410.438,471.112
		c-0.428-0.399-0.856-0.799-1.286-1.198c2.208-6.67,4.05-13.427,5.109-20.39c0.188-1.235,0.826-2.386,2.403-2.417
		c0.406,0.873,0.812,1.745,1.218,2.618C416.368,457.191,417.433,465.555,410.438,471.112z"/>
	<path display="inline" fill-rule="evenodd" clip-rule="evenodd" fill="#C5896D" d="M342.247,456.147
		c-0.419,0.494-0.838,0.987-1.257,1.48c-2.504-7.95-0.562-15.668,1.236-23.395c0.401,0.969,0.803,1.94,1.205,2.911
		C345.048,443.604,345.562,449.995,342.247,456.147z"/>
	<path display="inline" fill-rule="evenodd" clip-rule="evenodd" fill="#C89077" d="M423.265,416.981
		c0.442-0.97,0.884-1.939,1.327-2.91c1.76,5.3,1.909,10.597-0.051,15.887c-0.408-0.923-0.815-1.847-1.224-2.771
		C420.486,423.8,420.521,420.397,423.265,416.981z"/>
	<path display="inline" fill-rule="evenodd" clip-rule="evenodd" fill="#D9D6C3" d="M342.247,456.147
		c0.322-6.339-0.092-12.723,1.185-19.003c0.261-1.415,0.523-2.83,0.816-4.414c22.236,11.396,45.535,13.088,69.571,9.141
		c5.784-0.949,1.638,3.63,2.847,5.238c-1.787,3.551-1.717,7.524-2.323,11.304c-0.707,4.402-2.077,8.287-5.189,11.501
		c-19.465,8.065-38.667,6.56-57.584-1.804C346.47,465.857,343.701,461.426,342.247,456.147z"/>
	<path display="inline" fill-rule="evenodd" clip-rule="evenodd" fill="#D9D6C3" d="M423.265,416.981
		c0.017,3.402,0.033,6.804,0.051,10.205c-1.134,6.801-4.487,11.934-11.642,12.997c-6.475,0.962-11.292-2.771-14.687-7.747
		c-7.757-11.367-11.262-24.045-10.336-37.856c1.931-4.957,2.913-10.62,9.674-11.669c7.304-1.134,12.187,2.177,16.469,7.747
		C418.829,398.507,421.836,407.389,423.265,416.981z"/>
	<path display="inline" fill-rule="evenodd" clip-rule="evenodd" fill="#C1C2BC" d="M402.348,441.362
		c-17.9,0.976-35.18-0.396-51.525-7.726c-2.435-1.092-5.644-2.345-5.302-5.373c0.302-2.677,3.544-3.094,5.974-3.68
		c11.296-2.725,22.669-3.084,34.124-1.146c2.382,0.402,4.317,1.307,5.478,3.614C393.845,432.513,397.708,437.095,402.348,441.362z"
		/>
	<path display="inline" fill-rule="evenodd" clip-rule="evenodd" fill="#D8C1AB" d="M371.59,461.031
		c-1.277,1.046-2.73,1.936-3.801,3.161c-7.45,8.529-11.237,4.026-16.617-1.471c-2.117-2.162-1.249-4.525,0.694-6.621
		c1.604-1.729,3.599-2.777,5.648-3.792c2.748,0.781,4.714-0.412,6.327-2.5c2.542,2.875,1.49,8.813,7.467,8.757
		C372.161,459.302,372.181,460.131,371.59,461.031z"/>
	<path display="inline" fill-rule="evenodd" clip-rule="evenodd" fill="#D8C0AB" d="M397.975,453.56
		c1.131,1.935,2.3,3.849,3.387,5.808c1.574,2.839,2.782,5.917,0.175,8.626c-2.563,2.665-6.203,3.909-9.68,2.932
		c-3.411-0.959-5.994-3.846-7.318-7.13c-0.65-1.612,1.044-3.436,2.336-4.825c1.64-1.765,3.292-3.519,4.939-5.277
		C393.906,455.437,395.959,455.372,397.975,453.56z"/>
	<path display="inline" fill-rule="evenodd" clip-rule="evenodd" fill="#A46C52" d="M363.842,449.809
		c-1.077,5.746-1.956,6.093-6.327,2.5C358.297,448.115,360.535,447.608,363.842,449.809z"/>
	<path display="inline" fill-rule="evenodd" clip-rule="evenodd" fill="#9F5C41" d="M397.975,453.56
		c-0.15,1.795-0.028,3.812-2.607,3.954c-2.657,0.146-3.413-1.576-3.555-3.821C393.833,452.053,395.871,451.268,397.975,453.56z"/>
	<path display="inline" fill-rule="evenodd" clip-rule="evenodd" fill="#AA775A" d="M371.59,461.031
		c-0.093-0.821-0.187-1.644-0.281-2.466c4.082-0.06,8.106,0.215,13.044,2.216C379.37,462.67,375.438,460.608,371.59,461.031z"/>
	<path display="inline" fill-rule="evenodd" clip-rule="evenodd" fill="#BE7D5F" d="M416.828,415.212
		c-0.003,5.374-1.713,9.112-6.321,10.43c-4.391,1.255-7.717-1.086-10.006-4.69c-3.18-5.007-5.052-10.527-5.032-16.498
		c0.013-4.201,1.402-7.823,5.845-9.37c4.097-1.425,6.785,0.997,9.222,3.648C414.992,403.583,416.372,409.619,416.828,415.212z"/>
	<path display="inline" fill-rule="evenodd" clip-rule="evenodd" fill="#D9D6C3" d="M397.795,406.711
		c0.122-4.622-0.245-8.313,3.939-9.575c3.919-1.183,6.354,1.362,8.298,4.203c3.29,4.809,4.678,10.184,4.348,16.035
		c-0.174,3.078-1.583,5.132-4.435,6.17c-2.858,1.041-4.972-0.585-6.605-2.456C399.466,416.65,398.357,411.121,397.795,406.711z"/>
</g>
</svg>
